<svg width="80" height="73" viewBox="0 0 80 73" fill="none" xmlns="http://www.w3.org/2000/svg">
<path d="M0.948964 31.6114C-4.61229 4.57331 15.6245 -0.684088 26.438 0.0669694C41.886 0.0669694 73.2453 5.24926 75.099 25.9784C76.9528 46.7076 63.5131 57.1473 56.5615 59.776C40.3412 61.6537 6.51022 58.6494 0.948964 31.6114Z" fill="#CDEDF7"/>
<path d="M29.3801 52.8128L24.5628 56.7442C24.0662 57.1594 24.0662 57.8187 24.5628 58.2094L27.2446 60.4071C27.7412 60.8222 28.5606 60.8222 29.0572 60.4071L33.8745 56.4756C34.3711 56.0605 34.3711 55.4012 33.8745 55.0105L31.1927 52.8128C30.6961 52.3977 29.8767 52.3977 29.3801 52.8128Z" stroke="#101111" stroke-miterlimit="10"/>
<path d="M34.7932 55.6944L28.4613 60.8712C27.9647 61.2863 27.9647 61.9456 28.4613 62.3363L31.143 64.534C31.6396 64.9491 32.4591 64.9491 32.9557 64.534L39.2876 59.3572C39.7842 58.9421 39.7842 58.2828 39.2876 57.8921L36.6058 55.6944C36.1092 55.2793 35.2898 55.2793 34.7932 55.6944Z" stroke="#101111" stroke-miterlimit="10"/>
<path d="M39.4118 59.284L33.0799 64.4608C32.5832 64.8759 32.5832 65.5352 33.0799 65.9259L35.7616 68.1236C36.2582 68.5387 37.0777 68.5387 37.5743 68.1236L43.9062 62.9468C44.4028 62.5317 44.4028 61.8724 43.9062 61.4817L41.2244 59.284C40.7278 58.8689 39.9084 58.8689 39.4118 59.284Z" stroke="#101111" stroke-miterlimit="10"/>
<path d="M42.8136 64.0455L37.9716 68.0257C37.475 68.4409 37.475 69.1002 37.9716 69.4909L40.6533 71.6886C41.15 72.1037 41.9694 72.1037 42.466 71.6886L47.308 67.7083C47.8047 67.2932 47.8047 66.6339 47.308 66.2432L44.6263 64.0455C44.1297 63.6304 43.3103 63.6304 42.8136 64.0455Z" stroke="#101111" stroke-miterlimit="10"/>
<path d="M26.748 54.9617L19.4228 47.4163L13.0909 42.4104L25.9782 29.8103L33.5268 33.8882L41.6217 35.8906" stroke="#101111" stroke-miterlimit="10"/>
<path d="M67.2225 29.8103L59.9967 34.0348H49.518L39.1138 36.4278L33.8745 44.3883C33.8745 44.3883 32.5584 46.9523 36.0596 47.9047C38.5179 48.564 40.5292 45.9023 40.5292 45.9023L43.8814 41.2627L50.8837 41.6779L67.1977 54.864L72.1887 46.293L78.5454 41.4581L67.1977 29.8103H67.2225Z" stroke="#101111" stroke-miterlimit="10"/>
<path d="M59.9967 34.0348L72.2136 46.293" stroke="#101111" stroke-miterlimit="10"/>
<path d="M19.4228 47.4163L33.5268 33.8883" stroke="#101111" stroke-miterlimit="10"/>
<path d="M45.9672 68.8317C45.9672 68.8317 49.1455 73.0318 52.1253 71.0783C55.105 69.1248 52.5722 66.5119 52.5722 66.5119L49.3938 63.7038C49.3938 63.7038 54.4345 69.1003 57.2901 67.0736C59.7732 65.291 57.9605 63.1421 57.0418 62.2387C56.9176 62.1166 56.7935 61.9945 56.719 61.9212C56.0734 61.3352 51.4548 57.7212 51.4548 57.7212C51.4548 57.7212 59.0034 63.6061 61.1886 63.6549C64.3421 63.7282 65.0125 61.0665 62.6536 58.9665C60.2947 56.8665 53.7393 51.5676 53.7393 51.5676L61.4865 57.9409C61.4865 57.9409 64.7642 60.9689 67.2225 58.7712C69.6808 56.5735 66.4527 54.2293 66.4527 54.2293" stroke="#101111" stroke-miterlimit="10"/>
<path d="M59.9222 18.1869L51.1072 26.8312" stroke="#101111" stroke-miterlimit="10"/>
<path d="M31.7639 18.1869L40.554 26.8312" stroke="#101111" stroke-miterlimit="10"/>
<path d="M46.2404 26.8312V13.4009" stroke="#101111" stroke-miterlimit="10"/>
</svg>
