<svg width="467" height="561" viewBox="0 0 467 561" fill="none" xmlns="http://www.w3.org/2000/svg">
<circle cx="186.126" cy="468.065" r="92.4849" transform="rotate(90 186.126 468.065)" fill="white" fill-opacity="0.1"/>
<circle cx="374" cy="280.581" r="93" transform="rotate(90 374 280.581)" fill="white" fill-opacity="0.1"/>
<path opacity="0.1" d="M93.6416 94.5806C93.6416 106.793 96.0471 118.887 100.721 130.17C105.394 141.453 112.245 151.706 120.881 160.341C129.517 168.977 139.769 175.828 151.052 180.501C162.335 185.175 174.429 187.581 186.642 187.581C198.855 187.581 210.948 185.175 222.231 180.501C233.514 175.828 243.767 168.977 252.403 160.341C261.038 151.706 267.889 141.453 272.562 130.17C277.236 118.887 279.642 106.793 279.642 94.5805L186.642 94.5806L93.6416 94.5806Z" fill="white"/>
<path opacity="0.1" d="M0.193596 373.744C12.4542 373.744 24.5948 371.329 35.9221 366.637C47.2494 361.945 57.5417 355.068 66.2112 346.399C74.8808 337.729 81.7579 327.437 86.4498 316.11C91.1417 304.782 93.5566 292.642 93.5566 280.381C93.5566 268.12 91.1417 255.98 86.4498 244.653C81.7578 233.325 74.8808 223.033 66.2112 214.363C57.5416 205.694 47.2494 198.817 35.9221 194.125C24.5947 189.433 12.4542 187.018 0.193557 187.018L0.193588 280.381L0.193596 373.744Z" fill="white"/>
<rect opacity="0.2" x="280.31" y="187.077" width="186.664" height="186.666" transform="rotate(90 280.31 187.077)" fill="white"/>
<path d="M466.973 373.741L367.528 470.464L280.309 560.405L280.309 373.741L466.973 373.741Z" fill="white" fill-opacity="0.15"/>
<path d="M280.31 187.077L379.754 90.3541L466.973 0.413134L466.973 187.077L280.31 187.077Z" fill="white" fill-opacity="0.15"/>
</svg>
