<svg width="64" height="64" viewBox="0 0 64 64" fill="none" xmlns="http://www.w3.org/2000/svg">
<path d="M31.8031 31.0062C34.6716 31.0062 36.9969 28.6808 36.9969 25.8124C36.9969 22.944 34.6716 20.6187 31.8031 20.6187C28.9347 20.6187 26.6094 22.944 26.6094 25.8124C26.6094 28.6808 28.9347 31.0062 31.8031 31.0062Z" fill="#1C837A"/>
<path d="M31.8039 31.0061C26.2258 31.0061 21.707 35.103 21.707 40.1467V40.2124C21.707 40.8967 22.0914 41.5155 22.7008 41.8249C25.2227 43.0811 32.2727 45.753 40.8508 41.7874C41.4883 41.4967 41.9008 40.8499 41.9008 40.1467C41.9008 35.103 37.382 31.0061 31.8039 31.0061Z" fill="#1C837A"/>
<path d="M31.8027 58.6811C46.4038 58.6811 58.2402 46.8447 58.2402 32.2437C58.2402 17.6426 46.4038 5.80615 31.8027 5.80615C17.2017 5.80615 5.36523 17.6426 5.36523 32.2437C5.36523 46.8447 17.2017 58.6811 31.8027 58.6811Z" stroke="black" stroke-miterlimit="10"/>
<path d="M31.8027 2V11.4781" stroke="black" stroke-miterlimit="10"/>
<path d="M31.8027 52.6907V62.1594" stroke="black" stroke-miterlimit="10"/>
<path d="M52.5215 32.2437H61.9996" stroke="black" stroke-miterlimit="10"/>
<path d="M2 32.2437H11.4781" stroke="black" stroke-miterlimit="10"/>
</svg>
