<svg width="79" height="73" viewBox="0 0 79 73" fill="none" xmlns="http://www.w3.org/2000/svg">
<path d="M0.990223 31.7786C-4.81282 4.59751 16.3038 -0.687707 27.5875 0.0673237C43.7071 0.0673237 76.4298 5.27704 78.3642 26.1159C80.2985 46.9547 66.2745 57.4497 59.0207 60.0923C42.0951 61.9798 6.79327 58.9597 0.990223 31.7786Z" fill="#CDEDF7"/>
<path d="M68.9706 66.7717H16.4049C14.889 66.7717 13.6601 67.9366 13.6601 69.3735V69.3981C13.6601 70.835 14.889 71.9999 16.4049 71.9999H68.9706C70.4865 71.9999 71.7154 70.835 71.7154 69.3981V69.3735C71.7154 67.9366 70.4865 66.7717 68.9706 66.7717Z" stroke="#101111" stroke-miterlimit="10"/>
<path d="M28.5494 43.9446V26.64C28.5494 19.1537 34.9453 13.0909 42.8431 13.0909C50.7409 13.0909 57.1368 19.1537 57.1368 26.64V43.8955" stroke="#101111" stroke-miterlimit="10"/>
<path d="M57.5253 43.9445H27.8243C25.9938 43.9445 24.5099 45.3511 24.5099 47.0863V63.6299C24.5099 65.3651 25.9938 66.7717 27.8243 66.7717H57.5253C59.3558 66.7717 60.8398 65.3651 60.8398 63.6299V47.0863C60.8398 45.3511 59.3558 43.9445 57.5253 43.9445Z" stroke="#101111" stroke-miterlimit="10"/>
<path d="M49.5498 43.9444C52.2428 42.3244 54.0295 39.4771 54.0295 36.2371V29.4135C46.0281 29.4135 42.7654 25.8298 42.7654 25.8298C39.6581 28.6526 35.6186 29.2907 33.314 29.4135H31.5013V36.2371C31.5013 39.4771 33.2881 42.3244 35.9811 43.9444" stroke="#101111" stroke-miterlimit="10"/>
<path d="M29.9736 31.4263H31.5014V35.8199H29.9736C28.7048 35.8199 27.669 34.8381 27.669 33.6354C27.669 32.4326 28.7048 31.4508 29.9736 31.4508V31.4263Z" stroke="#101111" stroke-miterlimit="10"/>
<path d="M55.5573 35.7955H54.0295V31.4019H55.5573C56.8261 31.4019 57.8619 32.3837 57.8619 33.5864C57.8619 34.7892 56.8261 35.771 55.5573 35.771V35.7955Z" stroke="#101111" stroke-miterlimit="10"/>
<path d="M38.8036 31.7208V35.0345" stroke="#101111" stroke-miterlimit="10"/>
<path d="M46.7532 31.7208V35.0345" stroke="#101111" stroke-miterlimit="10"/>
<path d="M40.5903 39.2319C40.5903 39.2319 42.7137 41.3674 44.3968 39.2319" stroke="#101111" stroke-miterlimit="10"/>
<path d="M42.0145 58.3773C43.7879 58.3773 45.2254 57.0146 45.2254 55.3337C45.2254 53.6527 43.7879 52.29 42.0145 52.29C40.2412 52.29 38.8036 53.6527 38.8036 55.3337C38.8036 57.0146 40.2412 58.3773 42.0145 58.3773Z" stroke="#101111" stroke-miterlimit="10"/>
</svg>
