<svg width="79" height="73" viewBox="0 0 79 73" fill="none" xmlns="http://www.w3.org/2000/svg">
<path d="M0.990223 32.3168C-4.81282 4.67537 16.3038 -0.699354 27.5875 0.0684638C43.7071 0.0684638 76.4298 5.36641 78.3642 26.5582C80.2985 47.7499 66.2745 58.4226 59.0207 61.11C42.0951 63.0295 6.79327 59.9582 0.990223 32.3168Z" fill="#CDEDF7"/>
<path d="M28.0338 59.5873C28.0338 59.5873 17.1209 59.6606 13.6601 54.5502C13.6601 54.5502 19.066 43.6203 20.5312 37.0917C21.9963 30.563 20.0765 27.0175 20.0765 27.0175C20.0765 27.0175 18.0303 21.1247 17.904 16.7723C17.7777 12.4199 21.3648 17.5792 21.3648 17.5792C21.3648 17.5792 24.2446 23.3498 24.9519 25.5993C25.6592 27.8489 28.2359 31.4922 30.7873 32.128C33.3387 32.7637 37.6584 32.7392 42.1549 32.7392" stroke="#101111" stroke-miterlimit="10"/>
<path d="M39.5782 27.3355C39.5782 27.3355 46.8535 27.58 52.2594 23.2765C57.6654 18.973 63.6776 14.1315 63.6776 14.1315C63.6776 14.1315 68.0478 11.8086 66.6837 14.9874C65.3196 18.1661 60.7725 23.9122 60.7725 23.9122L54.4824 30.9543C54.4824 30.9543 56.6549 60.4187 53.2699 69.9793C53.2699 69.9793 52.4615 72.6934 50.9458 68.6834C49.4302 64.6733 47.7882 48.0461 47.7882 48.0461C47.7882 48.0461 47.9145 64.6488 45.161 71.2997C45.161 71.2997 43.8221 73.4025 42.9885 70.0527" stroke="#101111" stroke-miterlimit="10"/>
<path d="M35.8901 60.9321C35.8901 60.9321 36.3953 68.341 34.147 71.2507C31.8988 74.1605 30.7368 67.6563 30.7368 67.6563C30.7368 67.6563 30.3073 58.9515 30.762 52.6185C30.762 52.6185 23.6383 48.0705 21.3648 44.4761C19.0913 40.8817 25.0277 42.4221 25.0277 42.4221C25.0277 42.4221 31.2672 45.9432 33.4145 47.0435C35.5617 48.1439 38.7446 45.5764 38.7446 45.5764L45.4641 41.0773C45.4641 41.0773 50.2891 38.7055 48.6471 42.9356C48.6471 42.9356 47.3335 45.6987 41.6497 50.5401C41.6497 50.5401 42.2812 65.529 39.9066 71.0062C39.9066 71.0062 37.5321 76.1655 35.8901 60.9077V60.9321Z" stroke="#101111" stroke-miterlimit="10"/>
<path d="M19.5207 60.7122C19.5207 60.7122 19.7733 68.2677 20.708 70.444C21.6427 72.6202 22.6279 69.0991 22.6279 69.0991C22.6279 69.0991 24.0425 63.6219 24.093 61.5191" stroke="#101111" stroke-miterlimit="10"/>
<path d="M25.8108 61.6658C25.8108 61.6658 26.5181 70.2728 27.478 71.422C28.438 72.5712 28.9937 70.9574 28.9937 70.9574" stroke="#101111" stroke-miterlimit="10"/>
<path d="M41.7254 35.0133V40.6128" stroke="#101111" stroke-miterlimit="10"/>
<path d="M33.3892 28.9248C36.1516 28.9248 38.3909 26.7572 38.3909 24.0834C38.3909 21.4095 36.1516 19.2419 33.3892 19.2419C30.6268 19.2419 28.3875 21.4095 28.3875 24.0834C28.3875 26.7572 30.6268 28.9248 33.3892 28.9248Z" stroke="#101111" stroke-miterlimit="10"/>
<path d="M45.4389 23.0075C48.2013 23.0075 50.4406 20.8399 50.4406 18.166C50.4406 15.4922 48.2013 13.3246 45.4389 13.3246C42.6765 13.3246 40.4371 15.4922 40.4371 18.166C40.4371 20.8399 42.6765 23.0075 45.4389 23.0075Z" stroke="#101111" stroke-miterlimit="10"/>
<path d="M35.1828 44.5495C37.3731 44.5495 39.1488 42.8308 39.1488 40.7106C39.1488 38.5904 37.3731 36.8717 35.1828 36.8717C32.9924 36.8717 31.2167 38.5904 31.2167 40.7106C31.2167 42.8308 32.9924 44.5495 35.1828 44.5495Z" stroke="#101111" stroke-miterlimit="10"/>
</svg>
