<svg width="480" height="338" viewBox="0 0 480 338" fill="none" xmlns="http://www.w3.org/2000/svg">
<path d="M456.787 326.711H41.8434C38.9563 326.711 36.6158 329.051 36.6158 331.937C36.6158 334.824 38.9563 337.164 41.8434 337.164H456.787C459.674 337.164 462.014 334.824 462.014 331.937C462.014 329.051 459.674 326.711 456.787 326.711Z" fill="url(#paint0_linear_606_4865)"/>
<path d="M156.928 328.381C156.928 328.381 158.79 312.884 142.44 307.138C133.209 303.896 129.2 295.288 123.997 281.757C121.713 275.819 118.403 270.293 114.212 265.509C106.007 256.147 103.863 248.34 103.706 240.2C103.55 232.115 101.745 224.194 98.4834 216.796C92.7765 203.85 93.8317 193.752 98.8978 190.206C105.298 185.725 113.45 183.208 126.266 200.295C133.604 210.078 158.226 208.471 163.348 222.339C168.469 236.208 170.582 254.637 176.556 261.252C182.531 267.865 197.252 271.278 201.518 283.441C205.785 295.602 203.836 328.383 203.836 328.383H156.928V328.381Z" fill="url(#paint1_linear_606_4865)"/>
<path d="M179.225 328.6C179.194 328.6 179.165 328.6 179.134 328.592C178.794 328.542 178.561 328.226 178.611 327.887C178.623 327.81 179.734 320.154 178.907 310.983C178.149 302.58 175.561 291.145 167.537 284.388C157.263 275.737 151.329 262.919 145.591 250.524C142.305 243.427 139.203 236.723 135.336 230.71C128.796 220.537 116.686 211.713 116.565 211.624C116.288 211.422 116.226 211.034 116.426 210.757C116.626 210.48 117.016 210.415 117.293 210.617C117.416 210.706 129.711 219.663 136.382 230.038C140.294 236.123 143.56 243.179 146.719 250.004C152.399 262.275 158.275 274.966 168.337 283.438C176.691 290.473 179.37 302.255 180.148 310.901C180.984 320.214 179.852 327.995 179.842 328.072C179.796 328.38 179.531 328.602 179.228 328.602L179.225 328.6Z" fill="white"/>
<path d="M168.411 328.38C168.411 328.38 170.606 307.94 160.907 303.956C151.206 299.971 147.742 298.586 145.663 291.137C143.584 283.689 137.348 279.184 126.782 278.493C119.661 278.025 116.734 266.713 106.168 265.674C95.6022 264.636 87.9802 266.021 86.9395 274.335C85.9012 282.651 101.316 282.995 101.143 291.137C100.969 299.28 102.181 307.42 110.844 308.46C119.507 309.501 123.489 309.672 124.529 318.853C125.568 328.033 140.12 328.38 140.12 328.38H168.411Z" fill="url(#paint2_linear_606_4865)"/>
<path d="M153.483 328.886C153.213 328.886 152.987 328.672 152.977 328.399C152.977 328.361 152.808 324.521 151.705 320.021C150.698 315.909 148.679 310.383 144.794 307.41C141.966 305.247 138.952 303.483 136.039 301.78C130.99 298.827 125.77 295.77 121.33 290.537C114.549 282.542 105.457 278.358 105.366 278.317C105.11 278.201 104.997 277.9 105.113 277.644C105.229 277.389 105.53 277.276 105.785 277.392C105.879 277.435 115.178 281.713 122.103 289.88C126.43 294.982 131.576 297.993 136.553 300.903C139.492 302.623 142.532 304.401 145.41 306.603C148.723 309.137 151.175 313.575 152.695 319.797C153.82 324.396 153.984 328.199 153.989 328.358C154.001 328.638 153.782 328.874 153.502 328.886C153.495 328.886 153.488 328.886 153.481 328.886H153.483Z" fill="white"/>
<path d="M370.444 97.0576H203.034C198.682 97.0576 195.154 100.586 195.154 104.937V320.763C195.154 325.115 198.682 328.643 203.034 328.643H370.444C374.796 328.643 378.324 325.115 378.324 320.763V104.937C378.324 100.586 374.796 97.0576 370.444 97.0576Z" fill="url(#paint3_linear_606_4865)"/>
<path d="M355.812 97.0576H188.401C184.05 97.0576 180.522 100.586 180.522 104.937V320.763C180.522 325.115 184.05 328.643 188.401 328.643H355.812C360.164 328.643 363.691 325.115 363.691 320.763V104.937C363.691 100.586 360.164 97.0576 355.812 97.0576Z" fill="#509DAB"/>
<path d="M356.831 108.36H191.54V317.34H356.831V108.36Z" fill="url(#paint4_linear_606_4865)"/>
<path d="M354.752 108.36H189.461V317.34H354.752V108.36Z" fill="#CDE9FF"/>
<path d="M338.269 318.805H172.979C181.413 310.491 186.161 299.143 186.161 287.3V111.629H351.451V287.213C351.451 298.275 347.308 308.935 339.838 317.092L338.269 318.805Z" fill="#F1F7FA"/>
<path d="M305.837 97.0576H247.299C240.186 97.0576 234.42 102.823 234.42 109.936C234.42 117.049 240.186 122.815 247.299 122.815H305.837C312.95 122.815 318.716 117.049 318.716 109.936C318.716 102.823 312.95 97.0576 305.837 97.0576Z" fill="url(#paint5_linear_606_4865)"/>
<path d="M298.588 104.212H254.55C250.618 104.212 247.431 101.025 247.431 97.0932C247.431 93.1617 250.618 89.9746 254.55 89.9746H298.588C302.52 89.9746 305.707 93.1617 305.707 97.0932C305.707 101.025 302.52 104.212 298.588 104.212Z" fill="url(#paint6_linear_606_4865)"/>
<path d="M276.284 78.1514C268.97 78.1514 263.046 84.0823 263.046 91.396C263.046 98.7097 268.97 104.633 276.284 104.633C283.597 104.633 289.521 98.7024 289.521 91.396C289.521 84.0895 283.597 78.1514 276.284 78.1514ZM276.284 98.9988C272.085 98.9988 268.681 95.5924 268.681 91.396C268.681 87.1995 272.087 83.7932 276.284 83.7932C280.48 83.7932 283.886 87.1923 283.886 91.396C283.886 95.5997 280.48 98.9988 276.284 98.9988Z" fill="url(#paint7_linear_606_4865)"/>
<path d="M303.741 97.0576H245.203C238.091 97.0576 232.325 102.823 232.325 109.936C232.325 117.049 238.091 122.815 245.203 122.815H303.741C310.854 122.815 316.62 117.049 316.62 109.936C316.62 102.823 310.854 97.0576 303.741 97.0576Z" fill="#78B3C7"/>
<path d="M296.49 104.212H252.452C248.52 104.212 245.333 101.025 245.333 97.0932C245.333 93.1617 248.52 89.9746 252.452 89.9746H296.49C300.422 89.9746 303.609 93.1617 303.609 97.0932C303.609 101.025 300.422 104.212 296.49 104.212Z" fill="#78B3C7"/>
<path d="M274.186 78.1514C266.872 78.1514 260.948 84.0823 260.948 91.396C260.948 98.7097 266.872 104.633 274.186 104.633C281.499 104.633 287.423 98.7024 287.423 91.396C287.423 84.0895 281.499 78.1514 274.186 78.1514ZM274.186 98.9988C269.987 98.9988 266.583 95.5924 266.583 91.396C266.583 87.1995 269.989 83.7932 274.186 83.7932C278.382 83.7932 281.788 87.1923 281.788 91.396C281.788 95.5997 278.382 98.9988 274.186 98.9988Z" fill="#78B3C7"/>
<path d="M268.898 229.325H196.785C196.373 229.325 196.038 228.99 196.038 228.578V211.385C196.038 210.974 196.373 210.639 196.785 210.639H268.898C269.31 210.639 269.645 210.974 269.645 211.385V228.578C269.645 228.99 269.31 229.325 268.898 229.325ZM197.531 227.834H268.153V212.135H197.531V227.834Z" fill="#9DCDE5"/>
<path d="M341.011 229.325H268.898C268.486 229.325 268.151 228.99 268.151 228.578V211.385C268.151 210.974 268.486 210.639 268.898 210.639H341.011C341.423 210.639 341.758 210.974 341.758 211.385V228.578C341.758 228.99 341.423 229.325 341.011 229.325ZM269.644 227.834H340.266V212.135H269.644V227.834Z" fill="#9DCDE5"/>
<path d="M268.898 288.938H196.785C196.373 288.938 196.038 288.603 196.038 288.191V258.384C196.038 257.973 196.373 257.638 196.785 257.638H268.898C269.31 257.638 269.645 257.973 269.645 258.384V288.191C269.645 288.603 269.31 288.938 268.898 288.938ZM197.531 287.444H268.153V259.131H197.531V287.444Z" fill="#9DCDE5"/>
<path d="M268.898 259.132H196.785C196.373 259.132 196.038 258.797 196.038 258.385V228.578C196.038 228.166 196.373 227.832 196.785 227.832H268.898C269.31 227.832 269.645 228.166 269.645 228.578V258.385C269.645 258.797 269.31 259.132 268.898 259.132ZM197.531 257.638H268.153V229.325H197.531V257.638Z" fill="#9DCDE5"/>
<path d="M341.011 288.938H268.898C268.486 288.938 268.151 288.603 268.151 288.191V258.384C268.151 257.973 268.486 257.638 268.898 257.638H341.011C341.423 257.638 341.758 257.973 341.758 258.384V288.191C341.758 288.603 341.423 288.938 341.011 288.938ZM269.644 287.444H340.266V259.131H269.644V287.444Z" fill="#9DCDE5"/>
<path d="M341.011 259.132H268.898C268.486 259.132 268.151 258.797 268.151 258.385V228.578C268.151 228.166 268.486 227.832 268.898 227.832H341.011C341.423 227.832 341.758 228.166 341.758 228.578V258.385C341.758 258.797 341.423 259.132 341.011 259.132ZM269.644 257.638H340.266V229.325H269.644V257.638Z" fill="#9DCDE5"/>
<path d="M257.024 220.855H208.772C208.027 220.855 207.423 220.25 207.423 219.506C207.423 218.761 208.027 218.157 208.772 218.157H257.024C257.768 218.157 258.373 218.761 258.373 219.506C258.373 220.25 257.768 220.855 257.024 220.855Z" fill="#509DAB"/>
<path d="M323.692 220.855H284.474C283.73 220.855 283.125 220.25 283.125 219.506C283.125 218.761 283.73 218.157 284.474 218.157H323.692C324.437 218.157 325.042 218.761 325.042 219.506C325.042 220.25 324.437 220.855 323.692 220.855Z" fill="#509DAB"/>
<path d="M253.774 237.458H212.799C211.788 237.458 210.966 236.637 210.966 235.625C210.966 234.613 211.788 233.792 212.799 233.792H253.774C254.786 233.792 255.607 234.613 255.607 235.625C255.607 236.637 254.786 237.458 253.774 237.458Z" fill="#509DAB"/>
<path d="M260.454 271.078H206.119C205.108 271.078 204.286 270.257 204.286 269.245C204.286 268.233 205.108 267.412 206.119 267.412H260.454C261.466 267.412 262.287 268.233 262.287 269.245C262.287 270.257 261.466 271.078 260.454 271.078Z" fill="#509DAB"/>
<path d="M243.254 277.594H206.119C205.108 277.594 204.286 276.773 204.286 275.761C204.286 274.749 205.108 273.928 206.119 273.928H243.254C244.266 273.928 245.087 274.749 245.087 275.761C245.087 276.773 244.266 277.594 243.254 277.594Z" fill="#509DAB"/>
<path d="M260.454 245.015H206.119C205.108 245.015 204.286 244.193 204.286 243.181C204.286 242.17 205.108 241.348 206.119 241.348H260.454C261.466 241.348 262.287 242.17 262.287 243.181C262.287 244.193 261.466 245.015 260.454 245.015Z" fill="#509DAB"/>
<path d="M260.454 252.575H206.119C205.108 252.575 204.286 251.753 204.286 250.741C204.286 249.73 205.108 248.908 206.119 248.908H260.454C261.466 248.908 262.287 249.73 262.287 250.741C262.287 251.753 261.466 252.575 260.454 252.575Z" fill="#509DAB"/>
<path d="M287.753 234.856H278.5V237.995H287.753V234.856Z" fill="#509DAB"/>
<path d="M287.753 241.613H278.5V244.752H287.753V241.613Z" fill="#509DAB"/>
<path d="M287.753 248.371H278.5V251.509H287.753V248.371Z" fill="#509DAB"/>
<path d="M287.753 262.752H278.5V265.891H287.753V262.752Z" fill="#509DAB"/>
<path d="M287.753 269.51H278.5V272.649H287.753V269.51Z" fill="#509DAB"/>
<path d="M287.753 276.267H278.5V279.406H287.753V276.267Z" fill="#509DAB"/>
<path d="M321.83 237.995H291.48C291.046 237.995 290.694 237.644 290.694 237.21C290.694 236.777 291.046 236.425 291.48 236.425H321.83C322.264 236.425 322.616 236.777 322.616 237.21C322.616 237.644 322.264 237.995 321.83 237.995Z" fill="#509DAB"/>
<path d="M308.689 244.753H291.48C291.046 244.753 290.694 244.401 290.694 243.967C290.694 243.534 291.046 243.182 291.48 243.182H308.689C309.123 243.182 309.475 243.534 309.475 243.967C309.475 244.401 309.123 244.753 308.689 244.753Z" fill="#509DAB"/>
<path d="M330.664 251.51H291.482C291.048 251.51 290.697 251.158 290.697 250.724C290.697 250.291 291.048 249.939 291.482 249.939H330.664C331.098 249.939 331.449 250.291 331.449 250.724C331.449 251.158 331.098 251.51 330.664 251.51Z" fill="#509DAB"/>
<path d="M329.623 264.321H291.482C291.048 264.321 290.697 264.672 290.697 265.106C290.697 265.54 291.048 265.891 291.482 265.891H329.623C330.057 265.891 330.409 265.54 330.409 265.106C330.409 264.672 330.057 264.321 329.623 264.321Z" fill="#509DAB"/>
<path d="M315.302 272.648H291.48C291.046 272.648 290.694 272.297 290.694 271.863C290.694 271.429 291.046 271.078 291.48 271.078H315.302C315.736 271.078 316.087 271.429 316.087 271.863C316.087 272.297 315.736 272.648 315.302 272.648Z" fill="#509DAB"/>
<path d="M323.594 279.406H291.482C291.048 279.406 290.697 279.054 290.697 278.62C290.697 278.187 291.048 277.835 291.482 277.835H323.594C324.027 277.835 324.379 278.187 324.379 278.62C324.379 279.054 324.027 279.406 323.594 279.406Z" fill="#509DAB"/>
<path d="M294.84 132.771H335.887C337.356 132.771 338.551 133.965 338.551 135.435V139.207C338.551 140.677 337.356 141.872 335.887 141.872H294.84C293.371 141.872 292.176 140.677 292.176 139.207V135.435C292.176 133.965 293.371 132.771 294.84 132.771Z" fill="#509DAB"/>
<path d="M336.819 147.904H293.905C293.277 147.904 292.766 147.393 292.766 146.764C292.766 146.136 293.277 145.625 293.905 145.625H336.819C337.448 145.625 337.958 146.136 337.958 146.764C337.958 147.393 337.448 147.904 336.819 147.904Z" fill="#509DAB"/>
<path d="M336.819 151.956H293.905C293.277 151.956 292.766 151.445 292.766 150.817C292.766 150.188 293.277 149.677 293.905 149.677H336.819C337.448 149.677 337.958 150.188 337.958 150.817C337.958 151.445 337.448 151.956 336.819 151.956Z" fill="#509DAB"/>
<path d="M275.809 132.771H211.108C205.811 132.771 201.516 137.065 201.516 142.362C201.516 147.659 205.811 151.953 211.108 151.953H275.809C281.107 151.953 285.402 147.659 285.402 142.362C285.402 137.065 281.107 132.771 275.809 132.771Z" fill="#509DAB"/>
<path d="M341.011 158.631H199.774V160.462H341.011V158.631Z" fill="#9DCDE5"/>
<path d="M287.274 175.862H274.205C274.005 175.862 273.843 175.701 273.843 175.501V166.658C273.843 166.458 274.005 166.296 274.205 166.296H287.274C287.474 166.296 287.635 166.458 287.635 166.658V175.501C287.635 175.701 287.474 175.862 287.274 175.862ZM274.566 175.142H286.915V167.019H274.566V175.142Z" fill="#9DCDE5"/>
<path d="M339.125 175.501H292.913C291.949 175.501 291.169 174.72 291.169 173.757C291.169 172.793 291.949 172.013 292.913 172.013H339.125C340.088 172.013 340.869 172.793 340.869 173.757C340.869 174.72 340.088 175.501 339.125 175.501Z" fill="#509DAB"/>
<path d="M275.32 168.135L275.544 171.673C275.556 171.844 275.633 172.003 275.761 172.109L279.341 175.099C279.55 175.275 279.851 175.244 280.035 175.029L287.929 165.783C288.018 165.677 288.066 165.53 288.061 165.376L287.951 162.143C287.934 161.654 287.442 161.387 287.158 161.715L279.705 170.257C279.514 170.476 279.196 170.491 278.984 170.286L276.238 167.667C275.862 167.308 275.286 167.595 275.32 168.13V168.135Z" fill="#509DAB"/>
<path d="M274.942 167.807L275.166 171.346C275.178 171.517 275.255 171.676 275.383 171.782L278.963 174.771C279.172 174.947 279.473 174.916 279.656 174.701L287.551 165.456C287.64 165.35 287.688 165.203 287.683 165.049L287.572 161.816C287.555 161.327 287.064 161.059 286.78 161.387L279.326 169.929C279.136 170.148 278.818 170.163 278.606 169.958L275.86 167.34C275.484 166.981 274.908 167.267 274.942 167.802V167.807Z" fill="#519DAB"/>
<path d="M287.274 191.254H274.205C274.005 191.254 273.843 191.092 273.843 190.892V182.049C273.843 181.849 274.005 181.688 274.205 181.688H287.274C287.474 181.688 287.635 181.849 287.635 182.049V190.892C287.635 191.092 287.474 191.254 287.274 191.254ZM274.566 190.533H286.915V182.41H274.566V190.533Z" fill="#9DCDE5"/>
<path d="M339.125 190.894H292.913C291.949 190.894 291.169 190.114 291.169 189.15C291.169 188.187 291.949 187.406 292.913 187.406H339.125C340.088 187.406 340.869 188.187 340.869 189.15C340.869 190.114 340.088 190.894 339.125 190.894Z" fill="#509DAB"/>
<path d="M275.32 183.528L275.544 187.067C275.556 187.238 275.633 187.397 275.761 187.503L279.341 190.493C279.55 190.668 279.851 190.637 280.035 190.423L287.929 181.177C288.018 181.071 288.066 180.924 288.061 180.77L287.951 177.537C287.934 177.048 287.442 176.781 287.158 177.108L279.705 185.65C279.514 185.87 279.196 185.884 278.984 185.679L276.238 183.061C275.862 182.702 275.286 182.989 275.32 183.523V183.528Z" fill="#509DAB"/>
<path d="M274.942 183.201L275.166 186.739C275.178 186.91 275.255 187.069 275.383 187.175L278.963 190.165C279.172 190.341 279.473 190.309 279.656 190.095L287.551 180.849C287.64 180.743 287.688 180.596 287.683 180.442L287.572 177.209C287.555 176.72 287.064 176.453 286.78 176.781L279.326 185.323C279.136 185.542 278.818 185.556 278.606 185.352L275.86 182.733C275.484 182.374 274.908 182.661 274.942 183.196V183.201Z" fill="#519DAB"/>
<path d="M287.274 206.647H274.205C274.005 206.647 273.843 206.486 273.843 206.286V197.442C273.843 197.242 274.005 197.081 274.205 197.081H287.274C287.474 197.081 287.635 197.242 287.635 197.442V206.286C287.635 206.486 287.474 206.647 287.274 206.647ZM274.566 205.924H286.915V197.801H274.566V205.924Z" fill="#9DCDE5"/>
<path d="M339.125 206.286H292.913C291.949 206.286 291.169 205.505 291.169 204.541C291.169 203.578 291.949 202.797 292.913 202.797H339.125C340.088 202.797 340.869 203.578 340.869 204.541C340.869 205.505 340.088 206.286 339.125 206.286Z" fill="#509DAB"/>
<path d="M275.32 198.919L275.544 202.458C275.556 202.629 275.633 202.788 275.761 202.894L279.341 205.883C279.55 206.059 279.851 206.028 280.035 205.813L287.929 196.568C288.018 196.462 288.066 196.315 288.061 196.16L287.951 192.928C287.934 192.439 287.442 192.171 287.158 192.499L279.705 201.041C279.514 201.26 279.196 201.275 278.984 201.07L276.238 198.451C275.862 198.092 275.286 198.379 275.32 198.914V198.919Z" fill="#509DAB"/>
<path d="M274.942 198.591L275.166 202.13C275.178 202.301 275.255 202.46 275.383 202.566L278.963 205.556C279.172 205.731 279.473 205.7 279.656 205.486L287.551 196.24C287.64 196.134 287.688 195.987 287.683 195.833L287.572 192.6C287.555 192.111 287.064 191.844 286.78 192.171L279.326 200.713C279.136 200.933 278.818 200.947 278.606 200.742L275.86 198.124C275.484 197.765 274.908 198.052 274.942 198.586V198.591Z" fill="#519DAB"/>
<path d="M232.724 186.373C238.898 186.373 243.902 181.358 243.902 175.171C243.902 168.984 238.898 163.969 232.724 163.969C226.551 163.969 221.547 168.984 221.547 175.171C221.547 181.358 226.551 186.373 232.724 186.373Z" fill="url(#paint8_linear_606_4865)"/>
<path d="M249.722 204.542H215.724C213.166 204.542 211.323 202.08 212.041 199.618L214.32 191.788C214.797 190.148 216.298 189.021 218.003 189.021H247.441C249.147 189.021 250.647 190.148 251.124 191.788L253.403 199.618C254.121 202.08 252.278 204.542 249.72 204.542H249.722Z" fill="url(#paint9_linear_606_4865)"/>
<path d="M231.009 186.373C237.182 186.373 242.187 181.358 242.187 175.171C242.187 168.984 237.182 163.969 231.009 163.969C224.836 163.969 219.831 168.984 219.831 175.171C219.831 181.358 224.836 186.373 231.009 186.373Z" fill="#78B3C7"/>
<path d="M248.007 204.542H214.009C211.451 204.542 209.608 202.08 210.326 199.618L212.604 191.788C213.081 190.148 214.582 189.021 216.288 189.021H245.726C247.431 189.021 248.932 190.148 249.409 191.788L251.688 199.618C252.406 202.08 250.563 204.542 248.005 204.542H248.007Z" fill="#78B3C7"/>
<path d="M438.059 47.7717C439.206 45.435 438.529 42.614 436.455 41.041C429.339 35.6448 424.198 29.7476 420.905 25.332C420.423 24.6863 419.811 24.166 419.12 23.7974L413.796 20.9355L412.661 23.3373C407.559 23.4674 401.144 23.1422 394.141 21.6414C391.595 21.0969 389.015 22.4243 387.993 24.8188C385.452 30.7763 383.749 36.7192 382.915 42.5514C381.277 54.0254 383.028 65.0056 388.123 75.2968L386.82 78.0575L392.101 80.8929C392.122 80.9049 392.142 80.9145 392.163 80.9266L392.204 80.9483C393.276 81.5168 394.531 81.7288 395.784 81.4951C408.631 79.0813 419.431 72.9384 427.942 63.1892C431.815 58.7518 435.207 53.5822 438.062 47.7669L438.059 47.7717Z" fill="#3E86A5"/>
<path d="M390.448 78.6308C388.164 79.0596 385.866 78.0069 384.703 75.9978C378.145 64.69 375.751 52.4981 377.582 39.6871C378.415 33.855 380.118 27.912 382.66 21.9546C383.681 19.56 386.261 18.2327 388.808 18.7771C397.54 20.6465 405.362 20.6923 410.859 20.3044C412.695 20.1743 414.473 20.991 415.574 22.4653C418.867 26.881 424.008 32.7782 431.124 38.1743C433.198 39.7474 433.877 42.5683 432.728 44.905C429.874 50.7179 426.482 55.89 422.608 60.3274C414.097 70.0765 403.298 76.2194 390.45 78.6333L390.448 78.6308Z" fill="url(#paint10_linear_606_4865)"/>
<path d="M392.599 60.1661C392.587 60.1613 392.575 60.1541 392.563 60.1493C391.756 59.7662 391.149 59.0604 390.891 58.2028L386.993 45.1822C386.495 43.5128 387.442 41.7542 389.111 41.2556C390.78 40.7569 392.539 41.7036 393.038 43.3731L395.931 53.0403L417.467 44.0765C419.076 43.4068 420.922 44.168 421.591 45.7772C422.261 47.3864 421.5 49.2317 419.891 49.9014L395.124 60.2095C394.312 60.5467 393.397 60.5299 392.597 60.1637L392.599 60.1661Z" fill="#3E86A5"/>
<path d="M392.696 59.3761C392.684 59.3713 392.671 59.364 392.659 59.3592C391.852 58.9762 391.245 58.2704 390.988 57.4128L387.09 44.3922C386.591 42.7227 387.538 40.9642 389.207 40.4655C390.877 39.9669 392.635 40.9136 393.134 42.583L396.027 52.2503L417.564 43.2864C419.173 42.6167 421.018 43.378 421.688 44.9872C422.357 46.5964 421.596 48.4417 419.987 49.1114L395.22 59.4194C394.408 59.7567 393.493 59.7398 392.693 59.3737L392.696 59.3761Z" fill="white"/>
<path d="M215.719 21.7932L223.92 43.8162C223.975 43.9631 224.038 44.1052 224.112 44.2425C224.951 45.8445 226.873 46.6106 228.615 45.9601L262.425 33.3708C264.164 32.7228 265.116 30.8871 264.704 29.1285C264.67 28.9792 264.624 28.8298 264.571 28.6805L256.371 6.65751C256.308 6.49129 256.236 6.32989 256.149 6.17571C255.297 4.61228 253.398 3.8679 251.678 4.50869L217.868 17.0981C216.146 17.7389 215.197 19.5432 215.572 21.2849C215.609 21.4559 215.659 21.627 215.719 21.7932Z" fill="#3E86A5"/>
<path d="M218.107 15.188C218.107 15.188 215.869 18.7942 215.715 19.2664C215.368 20.3336 264.268 31.8485 264.268 31.8485C264.268 31.8485 266.255 28.6831 266.462 28.2158C266.669 27.7484 218.107 15.1855 218.107 15.1855V15.188Z" fill="#3E86A5"/>
<path d="M217.808 18.3508L226.008 40.3738C226.064 40.5207 226.126 40.6628 226.201 40.8002C227.039 42.4021 228.962 43.1682 230.703 42.5178L264.513 29.9284C266.253 29.2804 267.204 27.4447 266.792 25.6862C266.759 25.5368 266.713 25.3875 266.66 25.2381L258.46 3.21513C258.397 3.0489 258.325 2.8875 258.238 2.73333C257.385 1.16989 255.487 0.425517 253.767 1.06631L219.957 13.6557C218.234 14.2965 217.285 16.1008 217.661 17.8425C217.697 18.0135 217.748 18.1846 217.808 18.3508Z" fill="url(#paint11_linear_606_4865)"/>
<path d="M226.615 39.981C226.312 40.576 226.439 41.3011 226.926 41.7588C227.904 42.679 229.354 43.0211 230.701 42.52L264.511 29.9307C265.855 29.4296 266.727 28.2227 266.867 26.8881C266.937 26.2232 266.559 25.5921 265.94 25.3415L239.547 14.583L226.618 39.9834L226.615 39.981Z" fill="#4E9BAB"/>
<path d="M218.299 17.9941L240.469 23.2409C241.997 23.6022 243.594 23.0072 244.512 21.7353L257.853 3.26796C258.105 2.91625 258.086 2.43686 257.804 2.10924C256.838 0.986653 255.236 0.521718 253.767 1.06856L219.957 13.6579C218.475 14.2096 217.565 15.6213 217.579 17.1148C217.584 17.5364 217.89 17.8978 218.299 17.9965V17.9941Z" fill="#5DA4AB"/>
<path d="M222.098 18.0963C223.194 15.7109 222.148 12.889 219.763 11.7934C217.377 10.6977 214.555 11.7433 213.46 14.1286C212.364 16.514 213.41 19.3359 215.795 20.4316C218.18 21.5272 221.002 20.4817 222.098 18.0963Z" fill="#4F8A3A"/>
<path d="M223.063 15.9604C223.326 13.3486 221.421 11.0185 218.809 10.7559C216.198 10.4934 213.867 12.3979 213.605 15.0097C213.342 17.6215 215.247 19.9516 217.859 20.2141C220.47 20.4767 222.801 18.5722 223.063 15.9604Z" fill="#519DAB"/>
<path d="M135.719 308.395L134.063 310.574L151.36 323.722L153.016 321.543L135.719 308.395Z" fill="url(#paint12_linear_606_4865)"/>
<path d="M129.173 308.015L113.4 319.395L115.001 321.614L130.774 310.234L129.173 308.015Z" fill="url(#paint13_linear_606_4865)"/>
<path d="M95.5364 299.716L93.3225 301.324L107.503 320.843L109.717 319.234L95.5364 299.716Z" fill="url(#paint14_linear_606_4865)"/>
<path d="M126.129 307.788C126.63 311.17 129.738 313.683 133.074 313.406C136.411 313.126 138.709 310.161 138.21 306.779C137.709 303.397 134.601 300.884 131.265 301.161C127.929 301.438 125.63 304.406 126.129 307.788Z" fill="url(#paint15_linear_606_4865)"/>
<path d="M149.301 325.478C149.802 328.86 152.91 331.372 156.246 331.095C159.583 330.818 161.881 327.85 161.382 324.468C160.881 321.086 157.774 318.573 154.437 318.85C151.101 319.13 148.802 322.095 149.301 325.478Z" fill="url(#paint16_linear_606_4865)"/>
<path d="M104.701 323.008C105.202 326.391 108.31 328.903 111.646 328.626C114.983 328.349 117.281 325.381 116.782 321.999C116.281 318.617 113.174 316.104 109.837 316.381C106.501 316.661 104.202 319.626 104.701 323.008Z" fill="url(#paint17_linear_606_4865)"/>
<path d="M86.4097 297.795C86.9107 301.178 90.0183 303.69 93.3548 303.413C96.6912 303.134 98.9894 300.168 98.4907 296.786C97.9897 293.404 94.8821 290.891 91.5456 291.168C88.2092 291.448 85.911 294.413 86.4097 297.795Z" fill="url(#paint18_linear_606_4865)"/>
<path d="M154.649 319.296C153.334 319.048 152.112 319.749 151.187 320.628C150.315 321.457 149.696 322.524 149.564 323.731C149.542 323.919 149.74 324.083 149.915 324.083C150.123 324.083 150.246 323.921 150.267 323.731C150.376 322.741 150.932 321.857 151.633 321.175C152.361 320.465 153.394 319.771 154.464 319.973C154.905 320.057 155.095 319.38 154.649 319.296Z" fill="white"/>
<path d="M128.627 302.717C127.705 303.467 127.148 304.56 127.011 305.733C126.859 307.039 127.271 308.35 127.919 309.472C128.145 309.862 128.752 309.511 128.526 309.118C127.95 308.123 127.589 306.986 127.705 305.825C127.808 304.796 128.326 303.862 129.126 303.214C129.478 302.929 128.976 302.436 128.63 302.717H128.627Z" fill="white"/>
<path d="M89.0523 292.407C86.8457 293.816 86.2989 296.644 87.2215 298.986C87.3853 299.403 88.0647 299.22 87.8984 298.801C87.0962 296.763 87.4528 294.262 89.4065 293.017C89.7871 292.773 89.4354 292.166 89.0523 292.409V292.407Z" fill="white"/>
<path d="M109.329 317.01C108.04 317.47 106.896 318.306 106.156 319.472C105.349 320.749 105.152 322.331 105.547 323.782C105.665 324.218 106.344 324.032 106.224 323.596C105.874 322.319 106.05 320.953 106.761 319.828C107.394 318.824 108.401 318.087 109.512 317.689C109.933 317.537 109.753 316.86 109.326 317.012L109.329 317.01Z" fill="white"/>
<path d="M368.803 298.092C372.373 319.048 390.342 333.042 408.939 329.344C427.537 325.646 439.717 305.661 436.147 284.703C432.576 263.747 414.608 249.754 396.01 253.451C377.413 257.149 365.233 277.134 368.803 298.092Z" fill="#3C85A3"/>
<path d="M372.773 297.305C376.343 318.261 394.312 332.254 412.909 328.557C431.507 324.859 443.687 304.874 440.116 283.916C436.546 262.96 418.578 248.966 399.98 252.664C381.383 256.362 369.203 276.347 372.773 297.305Z" fill="#4B97A8"/>
<path d="M383.274 268.404C387.589 262.677 393.638 258.551 400.744 257.139C417.12 253.882 433.003 266.25 436.147 284.705C438.189 296.702 434.354 308.364 426.923 315.95C422.921 320.035 417.879 322.941 412.148 324.08C395.772 327.337 379.889 314.969 376.746 296.514C374.965 286.066 377.644 275.874 383.274 268.404Z" fill="white"/>
<path d="M433.451 287.842C430.307 269.387 414.425 257.022 398.048 260.276C392.317 261.416 387.275 264.321 383.274 268.407C387.588 262.68 393.637 258.554 400.744 257.142C417.12 253.885 433.003 266.253 436.146 284.708C438.189 296.705 434.354 308.367 426.922 315.953C432.552 308.482 435.231 298.29 433.451 287.842Z" fill="#C1DBDB"/>
<g opacity="0.26">
<path d="M401.32 267.953L402.691 267.681L401.25 259.223L399.879 259.495L401.32 267.953Z" fill="#7EB7C6"/>
<path d="M410.732 323.194L412.102 322.921L410.662 314.466L409.291 314.738L410.732 323.194Z" fill="#7EB7C6"/>
<path d="M385.365 296.11L385.102 294.563L377.598 296.054L377.861 297.601L385.365 296.11Z" fill="#7EB7C6"/>
<path d="M434.383 286.363L434.12 284.818L426.616 286.31L426.879 287.856L434.383 286.363Z" fill="#7EB7C6"/>
</g>
<path d="M379.969 288.369L380.14 286.69C380.166 286.43 380.376 286.247 380.607 286.281L403.404 289.605C403.808 288.767 404.533 288.138 405.437 287.96C405.682 287.911 405.926 287.899 406.164 287.919L414.543 275.715C414.757 275.402 415.159 275.349 415.441 275.594L417.262 277.184C417.544 277.43 417.597 277.883 417.383 278.196L408.87 290.6C408.87 290.612 408.874 290.624 408.877 290.636C409.183 292.431 408.14 294.144 406.547 294.459C405.092 294.748 403.685 293.775 403.218 292.236L380.345 288.902C380.113 288.868 379.947 288.629 379.974 288.369H379.969Z" fill="#C1DBDB"/>
<path d="M401.775 267.353L403.146 267.081L401.705 258.623L400.334 258.895L401.775 267.353Z" fill="#78B3C7"/>
<path d="M411.185 322.594L412.558 322.322L411.117 313.867L409.744 314.139L411.185 322.594Z" fill="#78B3C7"/>
<path d="M385.82 295.51L385.555 293.963L378.051 295.455L378.316 297.001L385.82 295.51Z" fill="#78B3C7"/>
<path d="M434.838 285.763L434.576 284.219L427.072 285.71L427.334 287.254L434.838 285.763Z" fill="#78B3C7"/>
<path d="M403.562 291.183C403.868 292.977 405.408 294.177 407 293.859C408.592 293.544 409.636 291.831 409.33 290.036C409.024 288.241 407.484 287.042 405.892 287.36C404.3 287.675 403.257 289.388 403.562 291.183Z" fill="#78B3C7"/>
<path d="M405.133 289.482L407.974 291.964L417.838 277.594C418.053 277.281 418 276.828 417.718 276.582L415.897 274.992C415.615 274.747 415.212 274.8 414.998 275.113L405.133 289.482Z" fill="#78B3C7"/>
<path d="M406.321 292.024L406.588 289.406L381.063 285.684C380.831 285.65 380.622 285.833 380.595 286.093L380.424 287.772C380.398 288.032 380.564 288.271 380.795 288.305L406.321 292.027V292.024Z" fill="#78B3C7"/>
<path d="M405.362 290.824C405.478 291.499 406.056 291.949 406.656 291.831C407.256 291.713 407.648 291.067 407.533 290.393C407.417 289.718 406.839 289.268 406.239 289.386C405.639 289.504 405.246 290.15 405.362 290.824Z" fill="white"/>
<path d="M36.2873 245.336L63.5218 234.155C65.0615 233.523 65.7972 231.763 65.1651 230.223L51.9405 198.01C51.3084 196.47 49.5478 195.734 48.0081 196.367L20.7736 207.547C19.2339 208.179 18.4982 209.94 19.1303 211.48L32.3549 243.693C32.987 245.232 34.7476 245.968 36.2873 245.336Z" fill="#4392A5"/>
<path d="M40.5035 243.608L67.738 232.427C69.2777 231.795 70.0134 230.035 69.3813 228.495L56.1567 196.282C55.5246 194.742 53.764 194.006 52.2243 194.639L24.9898 205.819C23.4501 206.451 22.7144 208.212 23.3465 209.752L36.5711 241.965C37.2032 243.504 38.9638 244.24 40.5035 243.608Z" fill="url(#paint19_linear_606_4865)"/>
<path d="M31.3522 217.184L55.6998 207.189C56.4731 206.871 56.8441 205.987 56.5261 205.211L54.5363 200.362C54.2183 199.588 53.3342 199.217 52.5585 199.535L28.2109 209.53C27.4376 209.848 27.0666 210.732 27.3846 211.508L29.3744 216.357C29.6924 217.131 30.5765 217.501 31.3522 217.184Z" fill="white"/>
<path d="M50.164 211.561L51.566 214.977L47.9357 216.466L48.5789 218.032L52.2092 216.543L53.6209 219.981L55.4469 219.231L54.0353 215.794L57.7114 214.286L57.0682 212.72L53.3921 214.228L51.99 210.812L50.164 211.561Z" fill="white"/>
<path d="M34.3346 221.862L35.1175 223.773L42.9949 220.54L42.212 218.629L34.3346 221.862Z" fill="white"/>
<path d="M43.0166 228.234C42.8913 229.742 42.7877 230.876 42.7853 231.38L42.7612 231.389C42.2625 230.898 41.3833 230.228 40.3522 229.327L37.7361 230.402L41.9108 233.24L41.1472 238.84L43.8742 237.72C44.0476 235.844 44.0187 234.666 44.0452 234.218L44.0693 234.208C44.4547 234.557 45.4039 235.461 46.6397 236.586L49.2992 235.494L44.9365 232.225L45.7869 227.097L43.0166 228.234Z" fill="white"/>
<path d="M53.3222 227.808L54.1051 229.718L61.9825 226.485L61.1996 224.575L53.3222 227.808Z" fill="white"/>
<path d="M55.5602 224.996C55.7625 225.49 56.3913 225.699 56.9646 225.463C57.5379 225.227 57.8366 224.637 57.6343 224.145C57.4319 223.652 56.8032 223.442 56.2299 223.678C55.6565 223.914 55.3578 224.504 55.5602 224.996Z" fill="white"/>
<path d="M57.6728 230.144C57.8751 230.638 58.5039 230.848 59.0772 230.612C59.6506 230.376 59.9493 229.785 59.7469 229.294C59.5446 228.803 58.9158 228.591 58.3425 228.827C57.7692 229.063 57.4704 229.653 57.6728 230.144Z" fill="white"/>
<path d="M85.1738 76.5303L92.5356 73.3047L93.227 74.8802C101.981 74.9283 110.656 80.6352 114.746 89.9628C118.835 99.2904 117.153 109.536 111.256 116.006L111.947 117.582L104.585 120.808C93.6149 125.616 80.3751 119.603 75.0151 107.375C69.6551 95.147 74.2032 81.3363 85.1762 76.5279L85.1738 76.5303Z" fill="#4088A5"/>
<path d="M111.944 117.585C122.915 112.775 127.465 98.964 122.105 86.7361C116.745 74.5082 103.505 68.4943 92.5336 73.3037C81.562 78.113 77.013 91.9244 82.373 104.152C87.733 116.38 100.972 122.394 111.944 117.585Z" fill="#78B3C7"/>
<path d="M86.6168 102.292C90.4278 110.987 99.3049 115.674 107.349 113.699C108.206 113.492 109.047 113.208 109.871 112.846C118.497 109.064 122.072 98.2092 117.859 88.5974C113.646 78.9855 103.239 74.2591 94.6122 78.0388C93.7859 78.4001 93.0078 78.8265 92.2755 79.3155C85.3737 83.8902 82.8057 93.5984 86.6168 102.29V102.292Z" fill="#509DAB"/>
<path d="M86.6168 102.292C90.4278 110.987 99.3049 115.674 107.349 113.699C114.262 109.129 116.818 99.4162 113.007 90.7245C109.196 82.0305 100.321 77.3305 92.2755 79.318C85.3737 83.8926 82.8057 93.6009 86.6168 102.292Z" fill="#4088A5"/>
<path d="M104.72 94.5303C105.607 94.7663 106.231 95.2987 106.594 96.125L107.156 97.4066C107.599 98.416 107.548 99.4157 107.004 100.411C106.459 101.406 105.515 102.227 104.169 102.88L104.968 104.703L102.176 105.927L101.377 104.104C99.907 104.732 98.5821 104.829 97.4017 104.388C96.2213 103.949 95.3251 103.032 94.7133 101.634L97.5053 100.411C97.7992 101.083 98.2135 101.531 98.7435 101.752C99.2735 101.974 99.8589 101.945 100.504 101.663L102.783 100.664C103.386 100.399 103.822 100.066 104.094 99.6614C104.366 99.2567 104.414 98.8544 104.238 98.4545L103.949 97.7944C103.672 97.1609 103.005 96.9826 101.952 97.2596L97.91 98.3148C96.5923 98.6617 95.4962 98.6978 94.6193 98.428C93.7424 98.1582 93.1161 97.5945 92.7427 96.7417L92.2657 95.6553C91.9767 94.9952 91.9068 94.3255 92.0561 93.6413C92.2055 92.9596 92.5572 92.3188 93.1113 91.7214C93.6654 91.1239 94.3905 90.6205 95.289 90.2109L94.4892 88.3873L97.2812 87.1636L98.081 88.9872C99.3963 88.4885 100.606 88.4452 101.707 88.8547C102.807 89.2666 103.627 90.0784 104.159 91.295L101.367 92.5187C101.128 91.9767 100.779 91.6082 100.321 91.4154C99.8613 91.2227 99.3722 91.242 98.8519 91.4708L96.532 92.4874C95.9563 92.7404 95.5468 93.0584 95.2986 93.4438C95.0505 93.8292 95.0144 94.2171 95.183 94.6049L95.4119 95.1277C95.6961 95.7757 96.3441 95.9684 97.3559 95.7107L101.386 94.6844C102.723 94.3448 103.834 94.2942 104.72 94.5303Z" fill="#509DAB"/>
<path d="M105.6 94.145C106.486 94.3811 107.11 94.9135 107.474 95.7398L108.035 97.0213C108.478 98.0307 108.428 99.0304 107.883 100.025C107.339 101.02 106.394 101.842 105.048 102.495L105.848 104.318L103.056 105.542L102.256 103.718C100.786 104.347 99.4614 104.443 98.281 104.003C97.1006 103.564 96.2044 102.646 95.5926 101.249L98.3846 100.025C98.6785 100.697 99.0928 101.146 99.6228 101.367C100.153 101.589 100.738 101.56 101.384 101.278L103.663 100.278C104.265 100.013 104.701 99.6809 104.973 99.2762C105.245 98.8714 105.294 98.4691 105.118 98.0692L104.829 97.4092C104.552 96.7756 103.884 96.5974 102.832 96.8744L98.7893 97.9295C97.4716 98.2764 96.3755 98.3126 95.4986 98.0428C94.6217 97.7729 93.9954 97.2092 93.622 96.3565L93.145 95.27C92.856 94.6099 92.7861 93.9402 92.9355 93.2561C93.0848 92.5743 93.4365 91.9336 93.9906 91.3361C94.5447 90.7387 95.2698 90.2352 96.1683 89.8257L95.3685 88.0021L98.1605 86.7783L98.9603 88.6019C100.276 88.1033 101.485 88.0599 102.586 88.4694C103.687 88.8814 104.506 89.6932 105.038 90.9097L102.246 92.1335C102.008 91.5915 101.658 91.2229 101.201 91.0302C100.741 90.8375 100.252 90.8567 99.7312 91.0856L97.4113 92.1022C96.8356 92.3551 96.4261 92.6731 96.1779 93.0586C95.9322 93.444 95.8937 93.8318 96.0623 94.2197L96.2912 94.7424C96.5754 95.3905 97.2234 95.5832 98.2352 95.3254L102.265 94.2992C103.602 93.9595 104.713 93.9089 105.6 94.145Z" fill="white"/>
<path d="M425.316 165.872C425.243 165.88 425.171 165.882 425.099 165.882C424.947 165.88 424.798 165.858 424.648 165.822C424.533 165.788 422.158 165.227 422.121 165.188C422.049 165.162 421.979 165.13 421.914 165.094C421.847 165.058 421.784 165.02 421.721 164.976C421.659 164.933 421.601 164.885 421.543 164.832C421.488 164.781 421.432 164.723 421.382 164.663C420.409 163.401 420.604 161.661 420.888 160.19C421.035 159.575 422.572 152.054 422.733 151.698C422.822 151.402 422.926 151.115 423.044 150.84C423.439 149.937 424.056 148.964 425.08 148.732C423.331 149.094 421.572 149.426 419.826 149.802C419.156 150.012 418.667 150.57 418.313 151.153C418.173 151.387 418.05 151.633 417.944 151.883C417.824 152.165 417.723 152.454 417.633 152.748C417.479 153.085 415.93 160.712 415.791 161.303C415.526 162.649 415.371 164.133 416.012 165.398C416.053 165.472 416.096 165.545 416.142 165.615C416.188 165.682 416.236 165.747 416.289 165.81C416.34 165.87 416.393 165.925 416.451 165.978C416.506 166.029 416.566 166.077 416.629 166.123C416.817 166.258 417.031 166.352 417.258 166.407C417.585 166.47 419.729 167.065 420.021 167.038C420.093 167.038 420.168 167.038 420.24 167.029C422.008 166.665 423.762 166.226 425.525 165.839C425.455 165.856 425.383 165.865 425.313 165.872H425.316Z" fill="#3E86A5"/>
<path d="M424.314 171.454C423.263 172.49 421.931 173.114 420.457 173.089C419.5 173.128 417.45 172.48 416.492 172.268C413.495 171.601 411.481 168.888 410.975 165.961C410.645 164.191 410.737 162.276 411.127 160.49C411.507 158.835 412.89 151.599 413.425 150.137C414.391 147.109 416.424 143.693 419.934 143.623C420.409 143.615 420.9 143.669 421.408 143.787C422.384 144.035 424.463 144.401 425.342 144.832C429.616 146.747 430.423 152.138 429.43 156.272L427.65 164.513C427.06 167.077 426.171 169.613 424.314 171.456V171.454ZM424.622 155.465C424.971 153.793 425.205 150.903 423.14 150.32L420.808 149.775C419.739 149.491 418.821 150.259 418.313 151.146C417.845 151.931 417.576 152.823 417.378 153.745L415.791 161.297C415.448 162.96 415.227 165.805 417.26 166.405L419.57 166.975C420.63 167.272 421.553 166.525 422.064 165.643C422.533 164.863 422.806 163.974 423.005 163.051L424.622 155.465Z" fill="#4E9BAB"/>
<path d="M434.863 151.773C434.86 151.058 434.798 150.344 434.665 149.641C434.2 147.09 432.6 144.613 430.083 143.696C429.377 143.397 427.272 142.992 426.503 142.799C425.916 142.665 425.309 142.607 424.709 142.655C422.808 142.937 420.934 143.375 419.043 143.715C420.452 143.368 422.543 144.083 423.928 144.363C426.405 144.864 428.341 146.767 429.173 149.106C429.84 150.889 429.929 152.838 429.702 154.717C429.63 155.668 427.872 163.404 427.655 164.512C426.877 167.851 425.374 171.965 421.705 172.953C422.165 172.828 427.183 171.705 427.46 171.534C428.556 171.1 429.469 170.279 430.182 169.349C430.447 169.004 430.685 168.638 430.905 168.263C431.059 167.995 431.203 167.723 431.338 167.446C431.338 167.446 431.338 167.446 431.338 167.443C431.632 166.834 431.88 166.205 432.095 165.564C432.651 164.083 434.089 156.829 434.487 155.17C434.487 155.167 434.487 155.162 434.487 155.16C434.595 154.657 434.684 154.146 434.749 153.635C434.749 153.633 434.749 153.628 434.749 153.625C434.824 153.011 434.863 152.395 434.86 151.775L434.863 151.773Z" fill="#3E86A5"/>
<path d="M444.703 149.024L449.692 147.957L455.221 149.227L450.256 150.308L444.703 149.024Z" fill="#3E86A5"/>
<path d="M444.703 149.024L450.256 150.308L422.056 193.185L416.822 191.786L444.703 149.024Z" fill="#4E9BAB"/>
<path d="M450.256 150.308L455.221 149.226L427.089 191.812L422.056 193.185L450.256 150.308Z" fill="#3E86A5"/>
<path d="M450.388 193.815C450.128 193.851 449.868 193.829 449.613 193.762C449.495 193.726 447.028 193.099 446.987 193.058C446.912 193.029 446.84 192.996 446.77 192.957C446.7 192.919 446.633 192.878 446.57 192.829C446.438 192.733 446.32 192.622 446.214 192.495C445.845 192.051 445.645 191.488 445.537 190.926C445.537 190.926 445.537 190.926 445.537 190.924C445.517 190.82 445.501 190.714 445.488 190.606C445.476 190.495 445.464 190.384 445.457 190.269C445.457 190.269 445.457 190.266 445.457 190.264C445.443 190.028 445.443 189.789 445.455 189.548C445.462 189.394 445.472 189.24 445.491 189.081C445.491 189.081 445.491 189.079 445.491 189.076C445.541 188.703 445.616 188.334 445.688 187.963L447.384 180.426C447.425 180.247 447.469 180.074 447.514 179.905C447.678 179.308 447.885 178.727 448.179 178.19C448.179 178.188 448.182 178.185 448.184 178.183C448.584 177.458 449.172 176.762 449.993 176.53L445.045 177.824C444.91 177.86 444.773 177.908 444.653 177.978C443.891 178.361 443.388 179.113 443.041 179.867C443.041 179.867 443.041 179.867 443.041 179.872C443.041 179.872 443.041 179.874 443.041 179.876C442.978 180.011 442.923 180.149 442.87 180.286C442.812 180.435 442.759 180.587 442.708 180.739C442.708 180.739 442.708 180.741 442.708 180.744C442.542 181.074 440.89 188.749 440.743 189.339C440.67 189.71 440.596 190.078 440.548 190.452C440.543 190.486 440.54 190.519 440.536 190.551V190.555C440.536 190.555 440.536 190.56 440.536 190.563V190.567V190.572C440.526 190.69 440.516 190.811 440.511 190.929C440.499 191.17 440.502 191.411 440.516 191.649C440.516 191.649 440.516 191.651 440.516 191.654C440.524 191.767 440.533 191.878 440.548 191.991C440.548 191.991 440.548 191.991 440.548 191.994C440.56 192.102 440.577 192.208 440.596 192.314C440.615 192.418 440.639 192.521 440.666 192.625C440.666 192.625 440.666 192.627 440.666 192.63C440.764 193.005 440.909 193.372 441.126 193.694C441.174 193.767 441.225 193.834 441.28 193.899C441.333 193.962 441.391 194.022 441.451 194.08C441.509 194.135 441.571 194.186 441.637 194.234C441.702 194.282 441.769 194.325 441.839 194.364C441.909 194.403 441.981 194.436 442.056 194.468C442.075 194.501 444.585 195.147 444.691 195.181C444.944 195.248 445.209 195.27 445.469 195.234C447.206 194.783 448.919 194.241 450.649 193.759C450.567 193.783 450.485 193.8 450.4 193.812L450.388 193.815Z" fill="#3E86A5"/>
<path d="M454.031 175.938C455.202 177.913 455.505 180.238 455.279 182.521C455.204 183.926 453.339 191.367 453.031 192.885C452.089 197.211 449.225 202.605 444 201.14C443.01 200.851 440.88 200.389 439.991 199.917C438.144 199.037 436.814 197.344 436.113 195.443C435.46 193.682 435.356 191.765 435.59 189.886C435.665 189.026 437.471 181.235 437.686 180.201C438.611 175.839 441.422 170.411 446.7 171.782C447.702 172.054 449.866 172.476 450.769 172.934C452.154 173.567 453.258 174.617 454.028 175.935L454.031 175.938ZM449.957 183.668C450.338 181.97 450.559 179.076 448.49 178.441L446.067 177.831C444.975 177.52 443.985 178.243 443.426 179.144C442.928 179.922 442.636 180.816 442.424 181.746L440.728 189.339C440.329 191.059 440.213 193.909 442.275 194.549L444.674 195.185C445.739 195.501 446.691 194.766 447.233 193.889C447.727 193.114 448.016 192.222 448.228 191.297L449.955 183.67" fill="#4E9BAB"/>
<path d="M460.253 179.782C460.253 179.346 460.232 178.91 460.183 178.476C459.938 176.159 458.878 173.841 456.972 172.425C456.972 172.425 456.97 172.425 456.967 172.422C456.871 172.35 456.772 172.28 456.671 172.215C456.57 172.148 456.466 172.083 456.363 172.022C456.257 171.96 456.148 171.9 456.04 171.842C455.931 171.784 455.821 171.731 455.707 171.678C455.242 171.466 454.758 171.3 454.262 171.179C453.792 171.073 451.47 170.469 451.041 170.416C450.306 170.3 449.548 170.305 448.82 170.471C448.784 170.478 448.748 170.488 448.712 170.498L443.752 171.743C444.588 171.531 445.467 171.538 446.315 171.702C446.498 171.733 449.073 172.372 449.326 172.434C452.793 173.203 454.958 176.402 455.283 179.796C455.457 181.403 455.305 183.029 454.941 184.605L453.038 192.889C452.993 193.079 452.947 193.267 452.899 193.453C452.578 194.674 452.166 195.874 451.595 196.999C450.675 198.813 449.244 200.557 447.233 201.164C447.582 201.046 452.605 199.601 452.752 199.475C454.161 198.859 455.252 197.669 456.045 196.375C456.209 196.107 456.36 195.835 456.502 195.556C456.502 195.556 456.502 195.556 456.502 195.553C456.811 194.946 457.073 194.318 457.3 193.677C457.873 192.246 459.432 184.879 459.844 183.251C460.109 182.114 460.26 180.95 460.258 179.784L460.253 179.782Z" fill="#3E86A5"/>
<defs>
<linearGradient id="paint0_linear_606_4865" x1="249.315" y1="337.409" x2="249.315" y2="329.416" gradientUnits="userSpaceOnUse">
<stop stop-color="#80B5C1"/>
<stop offset="1" stop-color="#458EA6"/>
</linearGradient>
<linearGradient id="paint1_linear_606_4865" x1="214.883" y1="316.601" x2="69.4407" y2="203.451" gradientUnits="userSpaceOnUse">
<stop stop-color="#509DAB"/>
<stop offset="0.83" stop-color="#509DAB"/>
<stop offset="0.84" stop-color="#509DAB"/>
</linearGradient>
<linearGradient id="paint2_linear_606_4865" x1="170.286" y1="325.767" x2="110.206" y2="289.22" gradientUnits="userSpaceOnUse">
<stop stop-color="#509DAB"/>
<stop offset="0.84" stop-color="#509DAB"/>
</linearGradient>
<linearGradient id="paint3_linear_606_4865" x1="322.548" y1="212.85" x2="401.891" y2="212.85" gradientUnits="userSpaceOnUse">
<stop stop-color="#62AABC"/>
<stop offset="0.31" stop-color="#5EA6B9"/>
<stop offset="0.58" stop-color="#539BB3"/>
<stop offset="0.85" stop-color="#4189A7"/>
<stop offset="1" stop-color="#337B9F"/>
</linearGradient>
<linearGradient id="paint4_linear_606_4865" x1="453.407" y1="296.015" x2="314.83" y2="231.71" gradientUnits="userSpaceOnUse">
<stop stop-color="#62AABC"/>
<stop offset="0.48" stop-color="#5EA7B8"/>
<stop offset="0.91" stop-color="#539FAE"/>
<stop offset="1" stop-color="#509DAB"/>
</linearGradient>
<linearGradient id="paint5_linear_606_4865" x1="234.42" y1="109.936" x2="318.716" y2="109.936" gradientUnits="userSpaceOnUse">
<stop stop-color="#62AABC"/>
<stop offset="0.31" stop-color="#5EA6B9"/>
<stop offset="0.58" stop-color="#539BB3"/>
<stop offset="0.85" stop-color="#4189A7"/>
<stop offset="1" stop-color="#337B9F"/>
</linearGradient>
<linearGradient id="paint6_linear_606_4865" x1="247.431" y1="97.0932" x2="305.705" y2="97.0932" gradientUnits="userSpaceOnUse">
<stop stop-color="#62AABC"/>
<stop offset="0.31" stop-color="#5EA6B9"/>
<stop offset="0.58" stop-color="#539BB3"/>
<stop offset="0.85" stop-color="#4189A7"/>
<stop offset="1" stop-color="#337B9F"/>
</linearGradient>
<linearGradient id="paint7_linear_606_4865" x1="263.046" y1="91.3912" x2="289.521" y2="91.3912" gradientUnits="userSpaceOnUse">
<stop stop-color="#62AABC"/>
<stop offset="0.31" stop-color="#5EA6B9"/>
<stop offset="0.58" stop-color="#539BB3"/>
<stop offset="0.85" stop-color="#4189A7"/>
<stop offset="1" stop-color="#337B9F"/>
</linearGradient>
<linearGradient id="paint8_linear_606_4865" x1="221.547" y1="175.171" x2="243.9" y2="175.171" gradientUnits="userSpaceOnUse">
<stop stop-color="#62AABC"/>
<stop offset="0.31" stop-color="#5EA6B9"/>
<stop offset="0.58" stop-color="#539BB3"/>
<stop offset="0.85" stop-color="#4189A7"/>
<stop offset="1" stop-color="#337B9F"/>
</linearGradient>
<linearGradient id="paint9_linear_606_4865" x1="211.884" y1="196.782" x2="253.562" y2="196.782" gradientUnits="userSpaceOnUse">
<stop stop-color="#62AABC"/>
<stop offset="0.31" stop-color="#5EA6B9"/>
<stop offset="0.58" stop-color="#539BB3"/>
<stop offset="0.85" stop-color="#4189A7"/>
<stop offset="1" stop-color="#337B9F"/>
</linearGradient>
<linearGradient id="paint10_linear_606_4865" x1="373.2" y1="24.5066" x2="442.949" y2="88.8132" gradientUnits="userSpaceOnUse">
<stop stop-color="#76B7C1"/>
<stop offset="1" stop-color="#4B97AA"/>
</linearGradient>
<linearGradient id="paint11_linear_606_4865" x1="266.886" y1="21.7932" x2="217.577" y2="21.7932" gradientUnits="userSpaceOnUse">
<stop stop-color="#509DAB"/>
<stop offset="0.18" stop-color="#4B97A9"/>
<stop offset="0.4" stop-color="#3E88A3"/>
<stop offset="0.54" stop-color="#337B9F"/>
<stop offset="0.71" stop-color="#4B93AE"/>
<stop offset="0.87" stop-color="#5CA4B8"/>
<stop offset="1" stop-color="#62AABC"/>
</linearGradient>
<linearGradient id="paint12_linear_606_4865" x1="134.05" y1="316.064" x2="153.002" y2="316.064" gradientUnits="userSpaceOnUse">
<stop stop-color="#62AABC"/>
<stop offset="0.31" stop-color="#5EA6B9"/>
<stop offset="0.58" stop-color="#539BB3"/>
<stop offset="0.85" stop-color="#4189A7"/>
<stop offset="1" stop-color="#337B9F"/>
</linearGradient>
<linearGradient id="paint13_linear_606_4865" x1="113.409" y1="314.81" x2="130.783" y2="314.81" gradientUnits="userSpaceOnUse">
<stop stop-color="#62AABC"/>
<stop offset="0.31" stop-color="#5EA6B9"/>
<stop offset="0.58" stop-color="#539BB3"/>
<stop offset="0.85" stop-color="#4189A7"/>
<stop offset="1" stop-color="#337B9F"/>
</linearGradient>
<linearGradient id="paint14_linear_606_4865" x1="93.3473" y1="310.274" x2="109.74" y2="310.274" gradientUnits="userSpaceOnUse">
<stop stop-color="#62AABC"/>
<stop offset="0.31" stop-color="#5EA6B9"/>
<stop offset="0.58" stop-color="#539BB3"/>
<stop offset="0.85" stop-color="#4189A7"/>
<stop offset="1" stop-color="#337B9F"/>
</linearGradient>
<linearGradient id="paint15_linear_606_4865" x1="126.062" y1="307.285" x2="138.278" y2="307.285" gradientUnits="userSpaceOnUse">
<stop stop-color="#62AABC"/>
<stop offset="0.31" stop-color="#5EA6B9"/>
<stop offset="0.58" stop-color="#539BB3"/>
<stop offset="0.85" stop-color="#4189A7"/>
<stop offset="1" stop-color="#337B9F"/>
</linearGradient>
<linearGradient id="paint16_linear_606_4865" x1="149.231" y1="324.974" x2="161.45" y2="324.974" gradientUnits="userSpaceOnUse">
<stop stop-color="#62AABC"/>
<stop offset="0.31" stop-color="#5EA6B9"/>
<stop offset="0.58" stop-color="#539BB3"/>
<stop offset="0.85" stop-color="#4189A7"/>
<stop offset="1" stop-color="#337B9F"/>
</linearGradient>
<linearGradient id="paint17_linear_606_4865" x1="104.634" y1="322.502" x2="116.85" y2="322.502" gradientUnits="userSpaceOnUse">
<stop stop-color="#62AABC"/>
<stop offset="0.31" stop-color="#5EA6B9"/>
<stop offset="0.58" stop-color="#539BB3"/>
<stop offset="0.85" stop-color="#4189A7"/>
<stop offset="1" stop-color="#337B9F"/>
</linearGradient>
<linearGradient id="paint18_linear_606_4865" x1="86.3422" y1="297.29" x2="98.5582" y2="297.29" gradientUnits="userSpaceOnUse">
<stop stop-color="#62AABC"/>
<stop offset="0.31" stop-color="#5EA6B9"/>
<stop offset="0.58" stop-color="#539BB3"/>
<stop offset="0.85" stop-color="#4189A7"/>
<stop offset="1" stop-color="#337B9F"/>
</linearGradient>
<linearGradient id="paint19_linear_606_4865" x1="34.5695" y1="196.157" x2="68.7056" y2="262.451" gradientUnits="userSpaceOnUse">
<stop stop-color="#509DAB"/>
<stop offset="1" stop-color="#4693A8"/>
</linearGradient>
</defs>
</svg>
