<svg width="68" height="68" viewBox="0 0 68 68" fill="none" xmlns="http://www.w3.org/2000/svg">
<rect y="0.00927734" width="68" height="68" rx="12" fill="#E8F8FD"/>
<g clip-path="url(#clip0_1994_6186)">
<path d="M39.5013 32.2588C39.5013 33.6512 38.9482 34.9866 37.9636 35.9712C36.979 36.9558 35.6436 37.5089 34.2511 37.5089C32.8587 37.5089 31.5233 36.9558 30.5387 35.9712C29.5541 34.9866 29.001 33.6512 29.001 32.2588C29.001 30.8664 29.5541 29.531 30.5387 28.5464C31.5233 27.5618 32.8587 27.0086 34.2511 27.0086C35.6436 27.0086 36.979 27.5618 37.9636 28.5464C38.9482 29.531 39.5013 30.8664 39.5013 32.2588ZM37.7512 32.2588C37.7512 31.3305 37.3825 30.4402 36.7261 29.7838C36.0697 29.1274 35.1794 28.7587 34.2511 28.7587C33.3228 28.7587 32.4326 29.1274 31.7762 29.7838C31.1198 30.4402 30.751 31.3305 30.751 32.2588C30.751 33.1871 31.1198 34.0773 31.7762 34.7337C32.4326 35.3901 33.3228 35.7589 34.2511 35.7589C35.1794 35.7589 36.0697 35.3901 36.7261 34.7337C37.3825 34.0773 37.7512 33.1871 37.7512 32.2588ZM42.9139 40.9303C45.2116 38.6315 46.5023 35.5143 46.5023 32.264C46.5023 29.0138 45.2116 25.8966 42.9139 23.5978C41.7763 22.4601 40.4258 21.5576 38.9394 20.9419C37.4531 20.3262 35.86 20.0093 34.2511 20.0093C32.6423 20.0093 31.0492 20.3262 29.5628 20.9419C28.0765 21.5576 26.7259 22.4601 25.5884 23.5978C23.2907 25.8966 22 29.0138 22 32.264C22 35.5143 23.2907 38.6315 25.5884 40.9303L28.2502 43.5536L31.8256 47.0275L32.0583 47.234C33.4146 48.333 35.4009 48.263 36.6785 47.0275L40.9398 42.8799L42.9139 40.9303ZM26.8222 24.8316C27.7974 23.8553 28.9554 23.0808 30.2301 22.5524C31.5049 22.0239 32.8712 21.752 34.2511 21.752C35.631 21.752 36.9974 22.0239 38.2721 22.5524C39.5469 23.0808 40.7049 23.8553 41.6801 24.8316C43.5951 26.7491 44.6961 29.3318 44.7535 32.0412C44.8109 34.7506 43.8202 37.3776 41.9881 39.3745L41.6801 39.6965L39.3683 41.9786L35.4657 45.7745L35.3012 45.9145C34.9981 46.1414 34.6295 46.2639 34.2508 46.2636C33.8722 46.2633 33.5038 46.1402 33.2011 45.9127L33.0383 45.7727L27.8232 40.6888L26.8222 39.6965L26.5141 39.3763C24.682 37.3794 23.6914 34.7524 23.7488 32.043C23.8062 29.3335 24.9071 26.7491 26.8222 24.8316Z" fill="#539DAB"/>
</g>
<defs>
<clipPath id="clip0_1994_6186">
<rect width="28" height="28" fill="white" transform="translate(20 20.0093)"/>
</clipPath>
</defs>
</svg>
