<?xml version="1.0" encoding="UTF-8"?>
<svg id="Layer_2" data-name="Layer 2" xmlns="http://www.w3.org/2000/svg" viewBox="0 0 510.56 123.66">
  <defs>
    <style>
      .cls-1 {
        fill: #231f20;
      }

      .cls-1, .cls-2 {
        stroke-width: 0px;
      }

      .cls-2 {
        fill: #1c837a;
      }
    </style>
  </defs>
  <g id="Layer_1-2" data-name="Layer 1">
    <g>
      <path class="cls-2" d="M56.94,46.11c1.45,1.45,3.36,2.18,5.26,2.17,1.9,0,3.81-.72,5.26-2.17l20.77-20.77c2.9-2.9,2.9-7.6,0-10.5h0c-2.9-2.9-7.6-2.9-10.5,0l-10.07,10.07c-5.45,5.44-10.92,0-10.92,0l-10.07-10.07c-2.9-2.9-7.6-2.9-10.5,0-2.9,2.9-2.9,7.6,0,10.5l20.77,20.77Z"/>
      <circle class="cls-2" cx="62.2" cy="7.27" r="7.27"/>
      <path class="cls-2" d="M67.46,77.55c-1.45-1.45-3.36-2.18-5.26-2.17-1.9,0-3.81.72-5.26,2.17l-20.77,20.77c-2.9,2.9-2.9,7.6,0,10.5,2.9,2.9,7.6,2.9,10.5,0l10.07-10.07s5.46-5.44,10.92,0l10.07,10.07c2.9,2.9,7.6,2.9,10.5,0h0c2.9-2.9,2.9-7.6,0-10.5l-20.77-20.77Z"/>
      <circle class="cls-2" cx="62.2" cy="116.39" r="7.27"/>
      <path class="cls-2" d="M99.24,67.21s-5.44-5.46,0-10.92l10.07-10.07c2.9-2.9,2.9-7.6,0-10.5h0c-2.9-2.9-7.6-2.9-10.5,0l-20.77,20.77c-1.45,1.45-2.18,3.36-2.17,5.26,0,1.9.72,3.81,2.17,5.26l20.77,20.77c2.9,2.9,7.6,2.9,10.5,0,2.9-2.9,2.9-7.6,0-10.5l-10.07-10.07Z"/>
      <circle class="cls-2" cx="116.88" cy="61.75" r="7.27"/>
      <path class="cls-2" d="M48.29,61.75c0-1.9-.72-3.81-2.17-5.26l-20.77-20.77c-2.9-2.9-7.6-2.9-10.5,0h0c-2.9,2.9-2.9,7.6,0,10.5l10.07,10.07c5.44,5.45,0,10.92,0,10.92l-10.07,10.07c-2.9,2.9-2.9,7.6,0,10.5,2.9,2.9,7.6,2.9,10.5,0l20.77-20.77c1.45-1.45,2.18-3.36,2.17-5.26Z"/>
      <circle class="cls-2" cx="7.27" cy="61.75" r="7.27"/>
      <polygon class="cls-1" points="206.8 15.74 197.41 15.74 197.41 59.47 165.3 15.74 151.08 15.74 151.08 79.6 160.47 79.6 160.47 34.88 193.38 79.6 206.8 79.6 206.8 15.74"/>
      <path class="cls-1" d="M249.73,64.84c-2.77,4.92-6.17,7.33-10.11,7.33-4.92,0-7.07-3.22-7.07-10.46v-29.96h-15.12v30.5c0,11.09,6.8,18.25,17.8,18.25,6.17,0,11-2.24,14.49-6.62v5.72h15.12V31.75h-15.12v33.09Z"/>
      <polygon class="cls-1" points="320.39 15.74 303.48 67.52 286.58 15.74 269.76 15.74 291.94 79.6 308.49 79.6 330.58 15.74 320.39 15.74"/>
      <path class="cls-1" d="M337.29,25.31c3.31,2.86,8.68,2.86,11.9,0,1.61-1.43,2.41-3.22,2.41-5.46s-.8-4.02-2.41-5.37c-3.22-2.77-8.59-2.77-11.9,0-1.61,1.34-2.41,3.13-2.41,5.37s.81,4.02,2.41,5.46Z"/>
      <rect class="cls-1" x="335.59" y="31.75" width="15.2" height="47.85"/>
      <path class="cls-1" d="M399.54,66c-4.2,4.2-7.15,6.08-12.25,6.08-8.23,0-13.42-5.46-14.4-14.04h33.54c0-17.62-8.68-27.19-23.08-27.19-17.26,0-25.85,13.42-25.85,25.22,0,6.89,2.59,12.61,7.78,17.35,5.19,4.74,11.36,7.07,18.51,7.07,4.56,0,8.77-.98,12.52-3.04,3.85-2.06,6.44-4.74,7.96-8.14l-4.74-3.31ZM383.08,39.26c4.74,0,9.12,4.29,9.21,10.46h-19.05c1.34-6.44,5.1-10.46,9.84-10.46Z"/>
      <polygon class="cls-1" points="474.85 31.75 466.17 63.68 457.5 31.75 442.02 31.75 433.26 63.77 424.58 31.75 408.84 31.75 422.44 79.6 438 79.6 447.03 48.2 455.35 79.6 470.91 79.6 484.51 31.75 474.85 31.75"/>
      <polygon class="cls-1" points="149.85 94.79 155.39 94.79 155.39 110.96 157.82 110.96 157.82 94.79 163.38 94.79 163.38 92.74 149.85 92.74 149.85 94.79"/>
      <path class="cls-1" d="M186.17,98.31c0-3.49-2.4-5.57-6.4-5.57h-5.89v18.21h2.43v-7.13h3.79l3.77,7.13h2.71l-4.12-7.54c1.95-.61,3.72-2.38,3.72-5.11ZM179.9,101.82h-3.59v-7.03h3.39c2.53,0,4.05,1.32,4.05,3.52s-1.44,3.52-3.85,3.52Z"/>
      <polygon class="cls-1" points="200.26 102.76 207.65 102.76 207.65 100.71 200.26 100.71 200.26 94.79 209.02 94.79 209.02 92.74 197.84 92.74 197.84 110.96 209.4 110.96 209.4 108.91 200.26 108.91 200.26 102.76"/>
      <path class="cls-1" d="M226.65,92.44l-8.4,18.52h2.58l1.77-4.05h8.12l1.8,4.05h2.58l-8.4-18.52h-.05ZM223.49,104.91c1.24-2.78,2.18-4.96,3.19-7.54.99,2.58,1.92,4.76,3.16,7.54h-6.35Z"/>
      <polygon class="cls-1" points="241.17 94.79 246.71 94.79 246.71 110.96 249.14 110.96 249.14 94.79 254.7 94.79 254.7 92.74 241.17 92.74 241.17 94.79"/>
      <polygon class="cls-1" points="273.47 102.53 265.23 92.44 265.2 92.44 265.2 110.96 267.55 110.96 267.55 98.76 268.04 99.34 273.47 105.95 278.94 99.34 279.42 98.76 279.42 110.96 281.77 110.96 281.77 92.44 281.75 92.44 273.47 102.53"/>
      <polygon class="cls-1" points="296.85 102.76 304.24 102.76 304.24 100.71 296.85 100.71 296.85 94.79 305.6 94.79 305.6 92.74 294.42 92.74 294.42 110.96 305.98 110.96 305.98 108.91 296.85 108.91 296.85 102.76"/>
      <polygon class="cls-1" points="329.15 105.34 328.57 104.71 317.26 92.44 317.24 92.44 317.24 110.96 319.67 110.96 319.67 98.36 320.25 98.99 331.56 111.26 331.58 111.26 331.58 92.74 329.15 92.74 329.15 105.34"/>
      <polygon class="cls-1" points="342.08 94.79 347.62 94.79 347.62 110.96 350.05 110.96 350.05 94.79 355.61 94.79 355.61 92.74 342.08 92.74 342.08 94.79"/>
      <path class="cls-1" d="M379.67,101.85c0-4.12,2.98-7.16,7.13-7.16,2.33,0,4.22.76,5.41,1.37v-2.3c-.61-.35-2.66-1.32-5.41-1.32-5.51,0-9.59,4-9.59,9.41s4.07,9.41,9.59,9.41c2.88,0,4.93-.94,5.54-1.29v-2.3c-1.19.61-3.09,1.34-5.54,1.34-4.15,0-7.13-3.04-7.13-7.16Z"/>
      <polygon class="cls-1" points="405.78 102.76 413.16 102.76 413.16 100.71 405.78 100.71 405.78 94.79 414.53 94.79 414.53 92.74 403.35 92.74 403.35 110.96 414.91 110.96 414.91 108.91 405.78 108.91 405.78 102.76"/>
      <polygon class="cls-1" points="438.08 105.34 437.5 104.71 426.19 92.44 426.17 92.44 426.17 110.96 428.59 110.96 428.59 98.36 429.18 98.99 440.48 111.26 440.51 111.26 440.51 92.74 438.08 92.74 438.08 105.34"/>
      <polygon class="cls-1" points="451.01 94.79 456.55 94.79 456.55 110.96 458.98 110.96 458.98 94.79 464.54 94.79 464.54 92.74 451.01 92.74 451.01 94.79"/>
      <polygon class="cls-1" points="477.47 102.76 484.85 102.76 484.85 100.71 477.47 100.71 477.47 94.79 486.22 94.79 486.22 92.74 475.04 92.74 475.04 110.96 486.6 110.96 486.6 108.91 477.47 108.91 477.47 102.76"/>
      <path class="cls-1" d="M506.43,103.42c1.95-.61,3.72-2.38,3.72-5.11,0-3.49-2.4-5.57-6.4-5.57h-5.89v18.21h2.43v-7.13h3.79l3.77,7.13h2.71l-4.12-7.54ZM503.88,101.82h-3.59v-7.03h3.39c2.53,0,4.05,1.32,4.05,3.52s-1.44,3.52-3.85,3.52Z"/>
    </g>
  </g>
</svg>