<svg width="496" height="522" viewBox="0 0 496 522" fill="none" xmlns="http://www.w3.org/2000/svg">
<g opacity="0.1" filter="url(#filter0_d_606_5102)">
<path d="M363.802 261.717C337.496 286.999 304.21 302.33 255.441 302.33H251.576C346 356.742 414.117 290.827 418.756 290.061C418.756 290.061 396.315 271.669 363.802 261.717ZM282.542 308.454C318.147 303.861 343.681 290.827 366.143 270.903C383.946 277.027 397.883 284.703 406.387 290.061C360.731 319.957 319.693 321.488 282.542 308.454ZM367.668 279.323C352.958 292.358 336.701 301.543 316.58 308.454C338.247 309.985 363.008 305.392 390.882 290.061C383.924 286.234 376.172 282.406 367.668 279.323ZM102.198 261.717C69.6855 271.669 47.2444 290.061 47.2444 290.061C49.5637 290.061 121.547 355.977 214.425 302.33H210.559C162.563 302.33 128.526 286.999 102.198 261.717ZM60.4084 290.061C68.9124 284.703 82.8494 276.261 99.8788 270.903C121.547 290.827 147.875 303.861 183.458 308.454C146.307 321.488 106.064 319.957 60.3869 290.061H60.4084ZM98.3327 279.323C89.8287 282.385 81.3032 286.213 75.1185 290.061C102.993 305.392 126.98 309.985 149.421 308.454C129.299 301.564 113.043 292.358 98.3327 279.323ZM209.786 290.827C166.45 267.076 143.988 235.649 133.938 200.394C100.652 192.74 72.0262 197.332 72.0262 197.332C75.1185 200.394 101.446 290.061 209.786 290.827ZM94.4672 204.222C106.085 204.222 116.908 204.987 127.753 207.284C136.257 235.649 152.513 259.4 180.387 280.854C134.732 272.413 104.539 244.834 84.4171 204.222H94.4887H94.4672ZM150.194 263.248C137.03 247.918 127.753 231.821 121.547 213.429C113.816 211.898 105.29 211.132 96.0134 211.132C109.177 233.352 127.753 253.276 150.194 263.248ZM256.214 290.827C275.563 290.827 304.21 287.765 330.517 272.434C374.626 247.152 393.974 197.332 393.974 197.332C393.974 197.332 365.327 192.74 332.063 200.394C328.97 211.132 325.105 221.849 318.899 232.587C301.869 262.483 274.79 280.875 256.214 290.827ZM338.269 207.284C349.092 204.987 359.937 204.222 371.555 204.222H382.378C374.647 219.552 356.845 249.427 326.651 266.289C313.487 273.944 299.572 278.558 286.408 280.854C313.487 259.4 329.744 234.883 338.269 207.284ZM369.214 211.898C360.71 211.898 352.185 212.663 343.681 214.194C337.496 232.587 328.197 248.683 315.033 264.014C317.353 262.483 319.672 261.717 321.991 260.186C345.205 247.152 360.688 227.228 369.214 211.898ZM212.105 280.11C190.437 244.09 181.139 205.008 191.984 163.63C167.223 140.645 140.122 130.672 140.122 130.672C140.895 133.734 119.227 226.463 212.105 280.11ZM146.307 142.155C155.584 146.747 169.521 154.423 183.458 166.671C177.273 195.036 178.82 224.145 191.962 256.338C161.769 231.056 143.193 195.802 146.307 142.155ZM174.954 226.442C171.089 206.518 171.089 187.36 174.954 168.967C167.996 162.844 160.244 158.23 154.059 154.402C154.059 179.684 160.244 205.753 174.954 226.442ZM253.895 280.11C270.924 270.138 294.139 253.276 309.622 227.228C334.382 183.554 325.878 130.672 325.878 130.672C325.878 130.672 298.777 140.645 274.017 163.63C284.861 205.008 275.563 244.09 253.895 280.11ZM318.92 142.155C319.693 159.016 319.693 193.505 301.891 223.38C294.16 236.414 284.088 247.131 273.265 256.338C286.429 224.145 287.975 195.036 281.769 166.671C296.479 154.402 310.416 146.747 318.92 142.155ZM291.046 226.442C292.592 224.145 294.139 221.849 295.685 219.552C308.849 197.332 311.941 172.795 311.941 154.402C305.756 158.23 298.004 162.822 291.046 168.967C294.912 187.36 294.912 206.518 291.046 226.442ZM233 106.135C233 106.135 198.941 147.513 198.941 198.098C198.941 248.683 233 290.061 233 290.061C233 290.061 267.059 248.683 267.059 198.098C267.059 147.513 233 106.135 233 106.135ZM233 119.169C269.378 172.816 267.059 225.698 233 277.048C198.168 225.698 197.395 172.051 233 119.169ZM233 133.713C208.24 177.388 208.24 218.022 233 262.462C257.76 218.787 258.534 178.153 233 133.713Z" fill="#539DAB"/>
<path d="M233 10.4521C104.517 10.4521 0 113.94 0 241.158C0 368.375 104.517 471.863 233 471.863C361.483 471.863 466 368.375 466 241.158C466 113.94 361.483 10.4521 233 10.4521ZM233 463.57C109.134 463.57 8.37512 363.803 8.37512 241.158C8.37512 118.512 109.134 18.7448 233 18.7448C356.866 18.7448 457.625 118.512 457.625 241.158C457.625 363.803 356.866 463.57 233 463.57Z" fill="#539DAB"/>
<path d="M233 24.1865C111.969 24.1865 13.8726 121.317 13.8726 241.156C13.8726 360.995 111.99 458.125 233 458.125C354.01 458.125 452.127 360.974 452.127 241.156C452.127 121.338 354.031 24.1865 233 24.1865ZM233 438.776C122.942 438.776 33.4146 350.13 33.4146 241.156C33.4146 132.182 122.942 43.536 233 43.536C343.058 43.536 432.585 132.182 432.585 241.156C432.585 350.13 343.058 438.776 233 438.776Z" fill="#539DAB"/>
</g>
<defs>
<filter id="filter0_d_606_5102" x="-30" y="0.452148" width="526" height="521.411" filterUnits="userSpaceOnUse" color-interpolation-filters="sRGB">
<feFlood flood-opacity="0" result="BackgroundImageFix"/>
<feColorMatrix in="SourceAlpha" type="matrix" values="0 0 0 0 0 0 0 0 0 0 0 0 0 0 0 0 0 0 127 0" result="hardAlpha"/>
<feOffset dy="20"/>
<feGaussianBlur stdDeviation="15"/>
<feComposite in2="hardAlpha" operator="out"/>
<feColorMatrix type="matrix" values="0 0 0 0 0 0 0 0 0 0 0 0 0 0 0 0 0 0 0.7 0"/>
<feBlend mode="normal" in2="BackgroundImageFix" result="effect1_dropShadow_606_5102"/>
<feBlend mode="normal" in="SourceGraphic" in2="effect1_dropShadow_606_5102" result="shape"/>
</filter>
</defs>
</svg>
