<svg width="80" height="73" viewBox="0 0 80 73" fill="none" xmlns="http://www.w3.org/2000/svg">
<path d="M1.46116 32.061C-4.34635 4.63836 16.7865 -0.693817 28.0789 0.0679218C44.2109 0.0679218 76.9588 5.32392 78.8947 26.3479C80.8305 47.3719 66.7957 57.9601 59.5363 60.6262C42.5977 62.5305 7.26867 59.4836 1.46116 32.061Z" fill="#CDEDF7"/>
<path d="M41.6035 39.4789C49.0259 39.4789 55.0428 33.7335 55.0428 26.6463C55.0428 19.5591 49.0259 13.8137 41.6035 13.8137C34.1812 13.8137 28.1643 19.5591 28.1643 26.6463C28.1643 33.7335 34.1812 39.4789 41.6035 39.4789Z" stroke="#101111" stroke-miterlimit="10"/>
<path d="M68.3297 62.2573C66.8308 49.4247 55.424 39.4546 41.5782 39.4546C27.7325 39.4546 16.351 49.449 14.8521 62.2573H68.3297Z" stroke="#101111" stroke-miterlimit="10"/>
<path d="M31.5178 41.3226L36.9545 50.3951L41.6036 44.8643L35.5064 40.1339" stroke="#101111" stroke-miterlimit="10"/>
<path d="M51.664 41.3226L46.2273 50.3951L41.6036 44.8643L47.6754 40.1339" stroke="#101111" stroke-miterlimit="10"/>
<path d="M39.241 47.6539L37.7167 57.3815L41.6037 62.2573L46.1258 57.3572L44.1188 47.8723" stroke="#101111" stroke-miterlimit="10"/>
<path d="M67.6692 42.3413C68.6092 43.3844 70.0827 43.8453 71.5054 43.5299C72.9789 43.1903 74.427 44.2092 74.554 45.6404C74.681 47.0231 75.5956 48.2118 76.9167 48.7455C78.3139 49.3034 78.8729 50.9287 78.0853 52.1659C77.3486 53.3545 77.3486 54.8342 78.0853 56.0229C78.8729 57.2601 78.3139 58.8854 76.9167 59.4433C75.5702 59.977 74.681 61.1899 74.554 62.5483C74.427 64.0038 72.9789 64.9984 71.5054 64.6588C70.0827 64.3434 68.6092 64.8044 67.6692 65.8475C66.6784 66.9391 64.9001 66.9391 63.9093 65.8475C62.9693 64.8044 61.4958 64.3434 60.0731 64.6588C58.5996 64.9984 57.1515 63.9796 57.0245 62.5483C56.8975 61.1656 55.9829 59.977 54.6618 59.4433C53.2646 58.8854 52.7057 57.2601 53.4932 56.0229C54.23 54.8342 54.23 53.3545 53.4932 52.1659C52.7057 50.9287 53.2646 49.3034 54.6618 48.7455C56.0083 48.2118 56.8975 46.9989 57.0245 45.6404C57.1515 44.1849 58.5996 43.1903 60.0731 43.5299C61.4958 43.8453 62.9693 43.3844 63.9093 42.3413C64.9001 41.2497 66.6784 41.2497 67.6692 42.3413Z" fill="#E8F8FD" stroke="#101111" stroke-miterlimit="10"/>
<path d="M65.7893 61.8933C70.2931 61.8933 73.9443 58.407 73.9443 54.1065C73.9443 49.8059 70.2931 46.3196 65.7893 46.3196C61.2854 46.3196 57.6342 49.8059 57.6342 54.1065C57.6342 58.407 61.2854 61.8933 65.7893 61.8933Z" stroke="#101111" stroke-miterlimit="10"/>
<path d="M57.05 63.1062L54.0268 68.8796C53.8235 69.2435 54.2046 69.6802 54.6111 69.5589L57.6851 68.7341C57.9137 68.6613 58.1678 68.7826 58.2948 69.0009L59.6159 71.7178C59.7937 72.0817 60.3526 72.106 60.5305 71.7178L63.6807 65.5805" stroke="#101111" stroke-miterlimit="10"/>
<path d="M74.5286 63.1062L77.5518 68.8796C77.755 69.2435 77.374 69.6802 76.9675 69.5589L73.8935 68.7341C73.6648 68.6613 73.4108 68.7826 73.2838 69.0009L71.9627 71.7178C71.7849 72.0817 71.2259 72.106 71.0481 71.7178L67.8979 65.5805" stroke="#101111" stroke-miterlimit="10"/>
<path d="M66.4498 51.7048C66.7547 52.5781 67.593 53.1603 68.533 53.1603C69.219 53.1603 69.4984 53.9851 68.9395 54.3732C68.1773 54.9069 67.8471 55.853 68.1519 56.702C68.3552 57.3327 67.6184 57.8422 67.0595 57.454C66.2974 56.9204 65.2558 56.9204 64.4936 57.454C63.9347 57.8422 63.198 57.3327 63.4012 56.702C63.7061 55.8287 63.3758 54.9069 62.6136 54.3732C62.0547 53.9851 62.3342 53.1603 63.0201 53.1603C63.9601 53.1603 64.8239 52.5781 65.1033 51.7048C65.3066 51.0741 66.2466 51.0741 66.4498 51.7048Z" stroke="#101111" stroke-miterlimit="10"/>
</svg>
