<svg width="79" height="72" viewBox="0 0 79 72" fill="none" xmlns="http://www.w3.org/2000/svg">
<path d="M1.29271 31.86C-3.6177 4.60929 14.2507 -0.689469 23.7987 0.0674962C37.4387 0.0674962 65.128 5.29056 66.7648 26.1828C68.4016 47.0751 56.5348 57.5969 50.3968 60.2462C36.0747 62.1387 6.20311 59.1108 1.29271 31.86Z" fill="#CDEDF7"/>
<g clip-path="url(#clip0_1847_7892)">
<path d="M25.5955 65.7958L29.1662 63.9442C30.0589 63.4873 31.0792 63.4392 31.9931 63.8239L46.0425 69.7155C46.34 69.8357 46.6376 69.9079 46.9352 69.956L53.1415 70.6774C53.9705 70.7736 54.7994 70.5571 55.5008 70.0522L76.2028 55.1429C77.8182 53.9886 78.3921 51.632 77.4994 49.7082C77.4994 49.6841 77.4781 49.636 77.4569 49.612C75.9478 46.4618 70.6766 49.612 70.6766 49.612L57.3925 56.8743C56.7123 57.235 55.9471 57.3793 55.2245 57.235L38.7308 54.3253" stroke="#101111" stroke-miterlimit="10"/>
<path d="M56.7973 57.1388C56.7973 57.1388 59.2416 56.4173 58.604 53.7481C57.9663 51.0788 52.9927 49.2272 52.9927 49.2272C52.9927 49.2272 42.8117 44.7785 35.075 43.023C34.1186 42.8066 33.1409 42.9028 32.2482 43.3116L21.2808 48.2172" stroke="#101111" stroke-miterlimit="10"/>
<path d="M72.3345 48.8185C72.3345 48.8185 71.0167 43.985 66.8295 46.3897C62.6424 48.7944 57.2012 51.6801 57.2012 51.6801" stroke="#101111" stroke-miterlimit="10"/>
<path d="M67.1271 46.2214C67.1271 46.2214 66.3407 40.955 62.1535 43.1914C57.9663 45.4278 51.93 48.7704 51.93 48.7704" stroke="#101111" stroke-miterlimit="10"/>
<path d="M15.6445 67.2297C16.3319 70.2111 19.0253 71.9975 21.6605 71.2198C24.2957 70.4421 25.8747 67.3947 25.1873 64.4133L22.2474 51.6621C21.56 48.6807 18.8665 46.8943 16.2313 47.672C13.5961 48.4497 12.0171 51.497 12.7045 54.4785L15.6445 67.2297Z" stroke="#101111" stroke-miterlimit="10"/>
<path d="M61.3246 31.8892L59.1141 30.3021C59.1991 29.7009 59.2416 29.0757 59.2416 28.4264C59.2416 27.5126 59.1566 26.6469 58.9866 25.8052L60.9633 24.3865L59.5605 20.587L57.1799 21.2603C56.3298 19.9377 55.2458 18.8315 53.9917 17.9899L54.6294 15.3447L51.3136 13.6854L49.6983 16.3787C49.3157 16.3306 48.9119 16.3066 48.5293 16.3066C47.8491 16.3066 47.1902 16.3787 46.5526 16.523L44.9372 13.9499L41.7065 15.8256L42.4292 18.4949C41.3665 19.3365 40.4313 20.3946 39.7086 21.597L37.2856 20.8996L35.8828 24.6991L38.0082 26.2381C37.9019 26.9595 37.8382 27.6809 37.8382 28.4264C37.8382 29.244 37.9019 30.0376 38.0507 30.8071L36.0528 32.2739L37.4556 36.0734L39.7936 35.4001C40.6225 36.7467 41.7065 37.877 42.9393 38.7427L42.3017 41.3157L45.6174 42.975L47.1477 40.426C47.6153 40.4981 48.0829 40.5222 48.5505 40.5222C49.2094 40.5222 49.8471 40.45 50.4847 40.3298L52.2276 43.0712L55.4583 41.1955L54.6931 38.3339C55.8409 37.4441 56.7974 36.2898 57.5625 34.9672L59.9643 35.6406L61.3671 31.8411L61.3246 31.8892Z" stroke="#101111" stroke-miterlimit="10"/>
<path d="M48.593 35.0874C51.8563 35.0874 54.5018 32.0944 54.5018 28.4023C54.5018 24.7102 51.8563 21.7172 48.593 21.7172C45.3297 21.7172 42.6842 24.7102 42.6842 28.4023C42.6842 32.0944 45.3297 35.0874 48.593 35.0874Z" stroke="#101111" stroke-miterlimit="10"/>
<path d="M48.2529 33.0435V31.9132C47.6791 31.9132 47.0839 31.6968 46.7226 31.4083L46.9564 30.6628C47.3177 30.9273 47.8278 31.1437 48.4017 31.1437C49.1031 31.1437 49.592 30.6868 49.592 30.0376C49.592 29.3883 49.2094 29.0276 48.4655 28.6909C47.4453 28.234 46.8076 27.729 46.8076 26.7431C46.8076 25.7572 47.4027 25.0838 48.3167 24.9155V23.7853H48.9331V24.8915C49.5282 24.8915 49.932 25.0838 50.2296 25.2762L49.9746 26.0217C49.762 25.8774 49.3582 25.6369 48.7205 25.6369C47.9554 25.6369 47.6578 26.166 47.6578 26.5988C47.6578 27.1759 48.0191 27.4886 48.8906 27.8974C49.9108 28.3783 50.4422 28.9554 50.4422 29.9654C50.4422 30.8552 49.8895 31.6968 48.8693 31.8892V33.0675H48.2317L48.2529 33.0435Z" fill="#101111"/>
</g>
<defs>
<clipPath id="clip0_1847_7892">
<rect width="66.4634" height="59.06" fill="white" transform="translate(12.0137 12.9399)"/>
</clipPath>
</defs>
</svg>
