<svg width="96" height="96" viewBox="0 0 96 96" fill="none" xmlns="http://www.w3.org/2000/svg">
<path d="M44.0166 35.8014C45.1379 36.9271 46.6149 37.4938 48.0841 37.486C49.5534 37.486 51.0304 36.9271 52.1516 35.8014L68.2129 19.6768C70.4555 17.4254 70.4555 13.7766 68.2129 11.5252C65.9704 9.27382 62.3359 9.27382 60.0934 11.5252L52.3063 19.343C48.0919 23.5663 43.862 19.343 43.862 19.343L36.0749 11.5252C33.8324 9.27382 30.1979 9.27382 27.9553 11.5252C25.7128 13.7766 25.7128 17.4254 27.9553 19.6768L44.0166 35.8014Z" fill="#1C837A"/>
<path d="M48.0964 11.288C51.2013 11.288 53.7183 8.76109 53.7183 5.644C53.7183 2.5269 51.2013 0 48.0964 0C44.9916 0 42.4746 2.5269 42.4746 5.644C42.4746 8.76109 44.9916 11.288 48.0964 11.288Z" fill="#1C837A"/>
<path d="M52.1516 60.205C51.0304 59.0793 49.5534 58.5126 48.0841 58.5203C46.6149 58.5203 45.1379 59.0793 44.0166 60.205L27.9553 76.3296C25.7128 78.581 25.7128 82.2298 27.9553 84.4812C30.1979 86.7326 33.8324 86.7326 36.0749 84.4812L43.862 76.6634C43.862 76.6634 48.0841 72.4401 52.3063 76.6634L60.0934 84.4812C62.3359 86.7326 65.9704 86.7326 68.2129 84.4812C70.4555 82.2298 70.4555 78.581 68.2129 76.3296L52.1516 60.205Z" fill="#1C837A"/>
<path d="M48.0964 95.9999C51.2013 95.9999 53.7183 93.473 53.7183 90.3559C53.7183 87.2388 51.2013 84.7119 48.0964 84.7119C44.9916 84.7119 42.4746 87.2388 42.4746 90.3559C42.4746 93.473 44.9916 95.9999 48.0964 95.9999Z" fill="#1C837A"/>
<path d="M76.7438 52.177C76.7438 52.177 72.5371 47.9382 76.7438 43.6994L84.5308 35.8816C86.7734 33.6302 86.7734 29.9814 84.5308 27.73C82.2883 25.4787 78.6538 25.4787 76.4113 27.73L60.35 43.8546C59.2287 44.9803 58.6642 46.4631 58.672 47.9382C58.672 49.4132 59.2287 50.8961 60.35 52.0217L76.4113 68.1463C78.6538 70.3977 82.2883 70.3977 84.5308 68.1463C86.7734 65.895 86.7734 62.2462 84.5308 59.9948L76.7438 52.177Z" fill="#1C837A"/>
<path d="M90.3787 53.5861C93.4835 53.5861 96.0005 51.0592 96.0005 47.9421C96.0005 44.825 93.4835 42.2981 90.3787 42.2981C87.2738 42.2981 84.7568 44.825 84.7568 47.9421C84.7568 51.0592 87.2738 53.5861 90.3787 53.5861Z" fill="#1C837A"/>
<path d="M37.3582 47.9382C37.3582 46.4631 36.8014 44.9803 35.6801 43.8546L19.6189 27.73C17.3763 25.4787 13.7418 25.4787 11.4993 27.73C9.25675 29.9814 9.25675 33.6302 11.4993 35.8816L19.2863 43.6994C23.493 47.9304 19.2863 52.177 19.2863 52.177L11.4993 59.9948C9.25675 62.2462 9.25675 65.895 11.4993 68.1463C13.7418 70.3977 17.3763 70.3977 19.6189 68.1463L35.6801 52.0217C36.8014 50.8961 37.3659 49.4132 37.3582 47.9382Z" fill="#1C837A"/>
<path d="M5.62183 53.5861C8.72668 53.5861 11.2437 51.0592 11.2437 47.9421C11.2437 44.825 8.72668 42.2981 5.62183 42.2981C2.51698 42.2981 0 44.825 0 47.9421C0 51.0592 2.51698 53.5861 5.62183 53.5861Z" fill="#1C837A"/>
</svg>
