<svg width="80" height="72" viewBox="0 0 80 72" fill="none" xmlns="http://www.w3.org/2000/svg">
<path d="M0.948964 31.7786C-4.61229 4.59751 15.6245 -0.687707 26.438 0.0673237C41.886 0.0673237 73.2453 5.27704 75.099 26.1159C76.9528 46.9547 63.5131 57.4497 56.5615 60.0923C40.3412 61.9798 6.51022 58.9597 0.948964 31.7786Z" fill="#CDEDF7"/>
<path d="M24.7038 39.9928V34.8383C24.7038 32.531 22.7683 30.641 20.4055 30.641C18.0427 30.641 16.1072 32.531 16.1072 34.8383V50.6455C16.1072 50.6455 16.1072 50.8664 16.1072 50.9892C16.1072 51.1119 16.1072 51.2101 16.1072 51.3328C16.1072 53.2719 17.716 54.8428 19.7017 54.8428H33.1495V68.2691C33.1495 69.6437 34.2807 70.7482 35.6883 70.7482C37.0959 70.7482 38.2271 69.6437 38.2271 68.2691V50.3264C38.2271 48.9273 37.0708 47.7982 35.6632 47.7982H24.7038" stroke="#101111" stroke-miterlimit="10"/>
<path d="M24.7038 39.8455H34.8337C35.9899 39.8455 36.92 40.7537 36.92 41.8828C36.92 43.0119 35.9899 43.9201 34.8337 43.9201H24.7038L20.9585 46.1291V35.5255" stroke="#101111" stroke-miterlimit="10"/>
<path d="M26.9158 29.4383C29.4007 29.4383 31.4152 27.4712 31.4152 25.0446C31.4152 22.6181 29.4007 20.651 26.9158 20.651C24.4308 20.651 22.4164 22.6181 22.4164 25.0446C22.4164 27.4712 24.4308 29.4383 26.9158 29.4383Z" stroke="#101111" stroke-miterlimit="10"/>
<path d="M13.0909 33.0464V57.4445H30.4851" stroke="#101111" stroke-miterlimit="10"/>
<path d="M15.7051 57.4446V72" stroke="#101111" stroke-miterlimit="10"/>
<path d="M26.4633 57.4446V72" stroke="#101111" stroke-miterlimit="10"/>
<path d="M66.9325 47.921V34.8137C66.9325 32.5065 68.868 30.6165 71.2308 30.6165C73.5936 30.6165 75.5291 32.5065 75.5291 34.8137V50.621C75.5291 50.621 75.5291 50.8419 75.5291 50.9646C75.5291 51.0873 75.5291 51.1855 75.5291 51.3083C75.5291 53.2473 73.9204 54.8183 71.9346 54.8183H58.4868V68.2446C58.4868 69.6191 57.3557 70.7237 55.948 70.7237C54.5404 70.7237 53.4093 69.6191 53.4093 68.2446V50.3019C53.4093 48.9028 54.5656 47.7737 55.9732 47.7737H66.9325L69.9489 46.1046V35.5255" stroke="#101111" stroke-miterlimit="10"/>
<path d="M69.8483 27.7447C72.3333 27.7447 74.3477 25.7776 74.3477 23.351C74.3477 20.9245 72.3333 18.9574 69.8483 18.9574C67.3634 18.9574 65.349 20.9245 65.349 23.351C65.349 25.7776 67.3634 27.7447 69.8483 27.7447Z" stroke="#101111" stroke-miterlimit="10"/>
<path d="M78.5455 33.0464V57.4445H61.1512" stroke="#101111" stroke-miterlimit="10"/>
<path d="M75.9313 57.4446V72" stroke="#101111" stroke-miterlimit="10"/>
<path d="M65.173 57.4446V72" stroke="#101111" stroke-miterlimit="10"/>
<path d="M40.1374 25.29V39.1582C40.1374 40.8027 41.4947 42.1282 43.1789 42.1282H57.3305C59.0146 42.1282 60.372 40.8027 60.372 39.1582V19.8655L53.4093 13.0909H43.204C41.5199 13.0909 40.1625 14.4164 40.1625 16.0609V25.3146" stroke="#101111" stroke-miterlimit="10"/>
<path d="M60.3217 19.89H56.2245C54.641 19.89 53.359 18.6382 53.359 17.0918V13.0909" stroke="#101111" stroke-miterlimit="10"/>
<path d="M49.6891 23.7927H56.8529" stroke="#101111" stroke-miterlimit="10"/>
<path d="M49.6891 29.5609H56.8529" stroke="#101111" stroke-miterlimit="10"/>
<path d="M49.6891 35.3046H56.8529" stroke="#101111" stroke-miterlimit="10"/>
<path d="M43.8827 23.9155L44.9635 24.9464L47.3012 22.6392" stroke="#101111" stroke-miterlimit="10"/>
<path d="M43.8827 29.659L44.9635 30.7145L47.3012 28.4072" stroke="#101111" stroke-miterlimit="10"/>
<path d="M43.8827 35.4272L44.9635 36.4581L47.3012 34.1754" stroke="#101111" stroke-miterlimit="10"/>
</svg>
